<?xml version="1.0" encoding="utf-8"?>
<!-- Generator: Adobe Illustrator 23.0.0, SVG Export Plug-In . SVG Version: 6.00 Build 0)  -->
<svg version="1.1" id="圖層_1" xmlns="http://www.w3.org/2000/svg" xmlns:xlink="http://www.w3.org/1999/xlink" x="0px" y="0px"
	 viewBox="0 0 500 500" style="enable-background:new 0 0 500 500;" xml:space="preserve">
<style type="text/css">
	.st0{fill:#222222;}
	.st1{font-family:'HanWangZonYi';}
	.st2{font-size:200px;}
</style>
<path class="st0" d="M255.6,124.3c0-31.1,0-62.2,0-93.4c0-19.4,8.5-28,27.9-28c62.2-0.1,124.5-0.1,186.7,0c19,0,27.6,8.5,27.6,27.4
	c0.1,62.5,0.1,125.1,0,187.6c0,18.8-8.9,27.1-27.9,27.2c-62.2,0.1-124.5,0.1-186.7,0c-18.7,0-27.5-8.8-27.6-27.4
	C255.6,186.6,255.6,155.5,255.6,124.3z M473.3,220.3c0-65,0-128.8,0-193c-64.5,0-128.3,0-192.7,0c0,64.5,0,128.6,0,193
	C345,220.3,408.9,220.3,473.3,220.3z"/>
<path class="st0" d="M3.5,377.7c0-31.1,0-62.2,0-93.4c0-19.4,8.5-28,27.9-28c62.2-0.1,124.5-0.1,186.7,0c19,0,27.6,8.5,27.6,27.4
	c0.1,62.5,0.1,125.1,0,187.6c-0.1,18.8-8.9,27.1-27.9,27.2c-62.2,0-124.5,0.1-186.7,0c-18.7,0-27.5-8.8-27.6-27.4
	C3.5,439.9,3.5,408.8,3.5,377.7z M221.1,473.7c0-65,0-128.8,0-193c-64.5,0-128.3,0-192.7,0c0,64.5,0,128.6,0,193
	C92.9,473.7,156.8,473.7,221.1,473.7z"/>
<image style="overflow:visible;enable-background:new    ;" width="344" height="344" xlink:href="19019055.png"  transform="matrix(0.5499 0 0 0.5499 284.1392 29.2242)">
</image>
<path class="st0" d="M125.3,2.9c30.7,0,61.3-0.1,92,0c18.5,0,27.1,8.6,27.1,27c0.1,61.6,0.1,123.2,0,184.8
	c0,18.1-8.4,26.9-26.4,26.9c-61.9,0.1-123.8,0.1-185.7,0c-18.3,0-26.7-8.3-26.7-26.6c-0.2-61.9-0.2-123.8,0-185.7
	C5.7,11.3,14.4,3,32.4,2.9C63.4,2.8,94.3,2.9,125.3,2.9z M196.6,74.5c0-12.9-10.7-23.7-23.6-23.8c-12.9-0.1-23.8,10.5-24.1,23.4
	c-0.3,13.1,10.9,24.4,24.1,24.3C185.9,98.3,196.6,87.4,196.6,74.5z M77,50.7c-12.9,0.1-23.6,11-23.6,23.8
	c0,13.2,11.4,24.3,24.5,23.9c12.9-0.4,23.4-11.3,23.1-24.3C100.7,61.1,89.9,50.5,77,50.7z M101,169.8c-0.2-13-10.8-23.5-23.8-23.5
	c-13,0.1-23.7,10.7-23.8,23.6c-0.1,13.2,11.2,24.3,24.3,24C90.7,193.7,101.1,182.8,101,169.8z M171.8,193.9
	c12.9,0.6,23.9-9.6,24.7-22.6c0.8-12.9-9.3-24.1-22.4-24.9c-13.3-0.8-24.8,9.6-25.2,22.9C148.5,182.1,159,193.4,171.8,193.9z"/>
<path class="st0" d="M377.1,256.1c30.4,0,60.8,0,91.2,0c19.1,0,27.6,8.3,27.7,27.5c0.1,61.4,0.1,122.7,0,184.1
	c0,18.8-8.4,27.2-27.1,27.2c-61.6,0.1-123.3,0.1-184.9,0c-18.4,0-26.8-8.8-26.8-27.5c0-61.4,0-122.7,0-184.1
	c0-18.4,8.7-27.2,27-27.2C315.1,256.1,346.1,256.1,377.1,256.1z M281.1,451c57-57,113.8-113.8,170.9-170.8
	c-10.4,0-21.2-0.3-32.1,0.2c-2.4,0.1-5.2,2.3-7.1,4.2C370.3,327,327.8,369.5,285.3,412c-1.7,1.8-3.9,4.1-4,6.3
	C280.9,429.4,281.1,440.5,281.1,451z M300.9,471.3c9.2,0,18.9,0.4,28.6-0.2c3.6-0.2,7.9-1.9,10.5-4.4
	c42.7-42.4,85.2-84.9,127.7-127.5c1.6-1.6,4.1-3.5,4.2-5.3c0.4-11.6,0.2-23.1,0.2-33.4C415,357.4,358.1,414.2,300.9,471.3z
	 M472.2,373c-32.8,32.8-65.8,65.9-98.2,98.3c8.6,0,18.9,0.3,29.3-0.2c2.8-0.1,6-2,8-4c19.1-18.9,38.1-37.9,57-57
	c1.7-1.7,3.6-4.2,3.7-6.4C472.4,392.9,472.2,382,472.2,373z M381,280.2c-11.1,0-22-0.2-32.9,0.2c-2.2,0.1-4.7,2-6.4,3.7
	c-18.9,18.7-37.7,37.5-56.5,56.4c-1.7,1.7-3.8,4.1-3.9,6.3c-0.4,11.1-0.2,22.2-0.2,33.4C314.6,346.6,347.5,313.8,381,280.2z
	 M471.5,471c0-10.1,0-19.2,0-26.7c-8.8,8.8-18,17.9-26.8,26.7C452.7,471,461.8,471,471.5,471z M281.6,307.2c8.9-9,17.9-18,26.5-26.6
	c-7.9,0-16.9,0-26.5,0C281.6,290.1,281.6,299.1,281.6,307.2z"/>
<path class="st0" d="M415.4,138.4c-7.8,0-15.2,0-22.6,0c-4.1,0-7.8-0.9-11-3.6c-5.2-4.2-7.1-11.1-5-17.3c2.2-6.4,7.9-10.6,15.1-10.7
	c6.7-0.1,13.4,0,20.1,0c1,0,2,0,3.4,0c0-1.2,0-2.2,0-3.1c0-6.5,0-13,0-19.5c0-3.8,1.5-6.6,4.9-8.1c3.6-1.6,6.8-0.6,9.5,2.2
	c12,11.9,24,23.7,35.9,35.6c5.3,5.3,5.3,12.3,0,17.6c-11.9,11.9-24,23.7-35.9,35.6c-2.7,2.7-5.9,3.8-9.5,2.2c-3.6-1.6-5-4.5-5-8.4
	C415.5,153.5,415.4,146.1,415.4,138.4z"/>
<text transform="matrix(1 0 0 1 24.4401 436.9637)" class="st0 st1 st2">東</text>
</svg>
