<?xml version="1.0" encoding="utf-8"?>
<!-- Generator: Adobe Illustrator 23.0.0, SVG Export Plug-In . SVG Version: 6.00 Build 0)  -->
<svg version="1.1" id="圖層_1" xmlns="http://www.w3.org/2000/svg" xmlns:xlink="http://www.w3.org/1999/xlink" x="0px" y="0px"
	 viewBox="0 0 500 500" style="enable-background:new 0 0 500 500;" xml:space="preserve">
<style type="text/css">
	.st0{fill:#222222;stroke:#222222;stroke-miterlimit:10;}
	.st1{display:none;fill:#111111;stroke:#222222;stroke-miterlimit:10;}
	.st2{display:none;}
	.st3{display:inline;stroke:#222222;}
	.st4{display:none;fill:#111111;}
	.st5{fill:#222222;}
	.st6{font-family:'HanWangZonYi';}
	.st7{font-size:200px;}
</style>
<path class="st0" d="M255.6,124.3c0-31.1,0-62.2,0-93.4c0-19.4,8.5-28,27.9-28c62.2-0.1,124.5-0.1,186.7,0c19,0,27.6,8.5,27.6,27.4
	c0.1,62.5,0.1,125.1,0,187.6c0,18.8-8.9,27.1-27.9,27.2c-62.2,0.1-124.5,0.1-186.7,0c-18.7,0-27.5-8.8-27.6-27.4
	C255.6,186.6,255.6,155.5,255.6,124.3z M473.3,220.3c0-65,0-128.8,0-193c-64.5,0-128.3,0-192.7,0c0,64.5,0,128.6,0,193
	C345,220.3,408.9,220.3,473.3,220.3z"/>
<path class="st0" d="M3.5,377.7c0-31.1,0-62.2,0-93.4c0-19.4,8.5-28,27.9-28c62.2-0.1,124.5-0.1,186.7,0c19,0,27.6,8.5,27.6,27.4
	c0.1,62.5,0.1,125.1,0,187.6c-0.1,18.8-8.9,27.1-27.9,27.2c-62.2,0-124.5,0.1-186.7,0c-18.7,0-27.5-8.8-27.6-27.4
	C3.5,439.9,3.5,408.8,3.5,377.7z M221.1,473.7c0-65,0-128.8,0-193c-64.5,0-128.3,0-192.7,0c0,64.5,0,128.6,0,193
	C92.9,473.7,156.8,473.7,221.1,473.7z"/>
<path class="st1" d="M691.1,17.1c30.4,0,60.8,0,91.2,0c19.1,0,27.6,8.3,27.7,27.5c0.1,61.4,0.1,122.7,0,184.1
	c0,18.8-8.4,27.2-27.1,27.2c-61.7,0.1-123.3,0.1-184.9,0c-18.4,0-26.8-8.8-26.8-27.4c0-61.4,0-122.7,0-184.1
	c0-18.4,8.7-27.2,27-27.2C629.2,17.1,660.1,17.1,691.1,17.1z M595.2,212C652.2,155,709,98.2,766,41.2c-10.3,0-21.2-0.3-32.1,0.2
	c-2.4,0.1-5.2,2.3-7.1,4.2C684.3,88,641.8,130.5,599.3,173c-1.7,1.8-3.9,4.1-4,6.3C594.9,190.4,595.2,201.5,595.2,212z M614.9,232.3
	c9.2,0,18.9,0.4,28.6-0.2c3.6-0.2,7.9-1.9,10.5-4.4c42.7-42.3,85.2-84.9,127.7-127.5c1.6-1.6,4.1-3.5,4.2-5.3
	c0.4-11.6,0.2-23.1,0.2-33.4C729,118.3,672.1,175.2,614.9,232.3z M786.2,134c-32.8,32.8-65.8,65.9-98.2,98.3
	c8.6,0,18.9,0.3,29.3-0.2c2.8-0.1,6-1.9,8-4c19.2-18.9,38.1-37.9,57-57c1.7-1.7,3.6-4.2,3.7-6.4C786.4,153.9,786.2,143,786.2,134z
	 M695,41.2c-11.1,0-22-0.2-32.9,0.2c-2.2,0.1-4.7,2-6.4,3.7c-18.9,18.7-37.7,37.5-56.5,56.4c-1.7,1.7-3.8,4.2-3.9,6.3
	c-0.4,11.1-0.2,22.2-0.2,33.4C628.7,107.6,661.5,74.8,695,41.2z M785.5,232c0-10.1,0-19.2,0-26.7c-8.8,8.8-18,17.9-26.8,26.7
	C766.7,232,775.8,232,785.5,232z M595.6,68.2c8.9-9,17.9-18,26.5-26.6c-7.9,0-16.9,0-26.5,0C595.6,51.1,595.6,60.2,595.6,68.2z"/>
<image style="overflow:visible;enable-background:new    ;" width="798" height="798" xlink:href="CCD8FD94.png"  transform="matrix(0.1697 0.1697 -0.1697 0.1697 373.76 -10.6651)">
</image>
<g class="st2">
	<path class="st3" d="M753.1,471.5c-1-0.4-1.9-0.6-2.8-0.6c-1.3,0-2.6-0.4-3.7-1.1c-2-1.7-4.2-3.3-6.5-4.5c-2.7-0.9-5.3-1.9-7.7-3
		c-1.9-1.6-2.7-3.7-2.4-6.3c2.6-0.3,5.2-0.5,7.9-0.6c2.4,0.6,4.8,0,7.1-1.7c0.7-2.2,0.7-4.5,0.2-6.9c-0.1-3.2-0.1-6.4,0-9.5
		c0.3-13.3,0.5-26.6,0.8-40.1c0-6.4-0.1-12.8-0.2-19.3c-0.3-2.9-0.4-5.9-0.4-9.1c0.4-2.9,0.5-5.8,0.2-8.7c-2-3.3-4.9-4.2-8.7-2.6
		c-2.6,0.6-5.2,0.6-7.9,0.2c-1.3,0.3-2.7,0.4-4.1,0.4c-1.8-0.3-3.5-0.3-5.1,0c-0.4-0.7-1-0.9-1.8-0.4c-1.8,0.7-3.5,0.7-5.3,0
		c-2-0.1-4-0.1-5.9,0c-2.2-0.1-4.2-0.3-6.1-0.4c-4.1,0.3-8,0.3-12,0c-4.6-0.1-9.1-0.4-13.4-0.9c-4.2,0.4-8.3,0.4-12.4,0
		c-2,0-4.1-0.1-6.1-0.2c-2-0.3-4.1-0.6-6.1-0.9c-1.8,0.1-3.5,0.4-5.1,0.9c-1.9-0.1-3.7-0.4-5.3-0.9c-2.2,0-4.2,0.1-6.1,0.2
		c-1.1,0.1-2,0.1-2.8,0c-1-0.3-1.9-0.5-2.8-0.6c-0.1,1.5-0.5,2.8-1,4.1c-0.3,1.7-0.4,3.5-0.4,5.2c0.1,3.9,0.2,7.9,0.2,11.9
		c-0.3,8.2-0.2,16.4,0.2,24.5c-0.4,3.9-0.5,7.7-0.2,11.5c-0.3,3.6-0.5,7.1-0.6,10.6c-0.1,8.2-0.1,16.4,0.2,24.5
		c0,3.6,0.2,7.1,0.6,10.6c0.5,3.2,0.1,6.1-1.4,8.7c-1.8,1.6-3.9,2.3-6.3,2.2c-2.4,0.3-4.8,0.5-7.1,0.6c-5.4,1-8.6-1.2-9.5-6.7
		c0-7.8,0.1-15.7,0.4-23.6c0.3-26.7,0.1-53.6-0.4-80.8c-0.4-4.2,0.7-7.9,3.3-11c1.6-1.4,3.5-2.4,5.7-2.8c2.6-0.3,5.1-0.5,7.7-0.6
		c2.4-0.3,5-0.5,7.7-0.6c3,0.3,6,0.4,9.1,0.4c2.7,0.4,5.5,0.7,8.3,0.9c2.4-0.4,4.8,0,7.1,1.3c1.2-0.7,2.6-0.9,4.1-0.6h5.1
		c1.9-0.1,3.9-0.2,5.9-0.2c2.7,1,5.4,1.2,8.1,0.6c1.5-1.9,2-4.2,1.6-6.9c0.5-3.2,0.5-6.4,0-9.8c-1.6-2.3-3.9-3.3-6.7-2.8
		c-3.1-0.4-6.2-0.6-9.3-0.4c-3.5-0.1-7-0.4-10.3-0.9c-7.4,0.3-14.9,0.4-22.3,0.2c-7,0.1-13.9-0.1-20.7-0.6c-2.8,0-4.7-1.4-5.7-4.3
		c-0.3-3.2,1.2-5.2,4.3-6.1c6.1-1,12.2-1,18.3,0c4.2,0,8.5,0,12.8,0c2,0.4,4.3,0.6,6.7,0.4c0.7-0.1,1.4-0.3,2.2-0.4
		c2.3,0,4.7,0.1,7.1,0.2c4.3,0.3,8.7,0.5,13.2,0.6c2,0.3,4.1,0.4,6.1,0.4c1.3,0.4,2.6,0.4,3.9-0.2c1.3-3.5,1.5-7.2,0.4-11.3
		c-0.4-4.5-0.7-9-0.8-13.6c0-1.7,0.4-3.5,1.2-5.2c0.9-1.4,2.4-2.3,4.5-2.6v0.4c3.1-0.4,6.4-0.7,9.7-0.9c2.4-0.4,4.9,0,7.3,1.3
		c1.5,2.6,1.9,5.4,1.2,8.5c-0.1,4.2-0.1,8.4,0,12.6c0,3.5,0.3,6.8,0.8,10c0.9,2.3,2.6,3,5.1,2c1.3-0.4,2.8-0.7,4.3-0.9
		c1.2,0.3,2.6,0.6,4.1,1.1c1.5,0.1,3.1,0.1,4.9-0.2c1.8,0,3.7,0.1,5.7,0.2c7.3-0.7,14.7-1.4,22.1-2.2c3.7,0,7.3,0,11,0
		c2.8-0.1,5.6,0.4,8.3,1.5c2.2,1.9,2.9,4.3,2.2,7.1c-1.3,2.6-3.4,3.8-6.1,3.5c-3.1,0-6.1,0.2-8.9,0.6c-1.8,0.4-3.5,0.7-5.1,0.9
		c-2-0.1-4.1-0.2-6.1-0.2c-1.6,0.4-3.2,0.7-4.7,0.9c-2,0-3.9-0.2-5.5-0.6c-3.9-0.1-7.8-0.3-11.6-0.4c-3.7,0.4-7.3,0.3-11-0.4
		c-2.2-0.9-4-0.6-5.5,0.9c-1.2-1.1-2.2-1.4-3-0.6c0.3,0.6,0.3,1.2,0,1.7c-0.7,1.6-0.8,3.3-0.2,5c-0.5,3.6-0.5,7.1,0.2,10.4
		c1,2.3,2.7,3.3,5.3,3c1.5,0.3,3.1,0.4,4.9,0.4c1.6-0.1,3.3,0,5.1,0.4c1.2,0.3,2.5,0.1,3.9-0.4c1.5-0.3,3.1-0.4,4.9-0.4
		c3.3-0.9,6.7-1.6,10.3-2.2c7.2-0.4,14.4-0.6,21.7-0.6c4.3-0.1,8,1.3,11.2,4.3c1.1,3,1.4,6.1,1,9.1v12.4c-0.3,8.2-0.4,16.4-0.4,24.5
		c0.1,8.2,0.2,16.4,0.2,24.5c-0.4,7.1-0.8,14.1-1.2,21.2c-0.1,1.6-0.1,3.1,0,4.5c0.3,1.6,0.3,3.2,0.2,4.8c-0.5,2.8-0.3,5.4,0.8,8
		c1.3,3.9,1,7.5-1,10.8c-2.3,1.6-4.7,2.4-7.1,2.4c-1.6,0.4-3.2,0.4-4.7-0.2C754.7,470.1,753.7,470.4,753.1,471.5z M691.4,464.3
		c-3.1-0.9-6.2-1.2-9.3-0.9c-2.3,0.4-4.3,0-6.1-1.3c-1.5-2.6-2-5.5-1.4-8.7c-0.1-3.6,0.1-7.4,0.6-11.3c1.6-4.8,1-8.8-1.8-12.1
		c-1.6-0.3-3.2-0.3-4.7,0c-1.6,0-3.2-0.1-4.7-0.2c-1.6,0.1-3.3,0.2-4.9,0.2c-1.5-0.3-2.8-0.1-4.1,0.6c-2.7-1.4-5.6-1.7-8.7-0.9
		c-6.2,1.2-10.2-1.1-12-6.7c0.7-2.5,2.2-3.9,4.7-4.3c3.5-0.3,7.1-0.6,10.8-0.9c3.4-0.4,6.9-0.6,10.5-0.6c3.5,0.9,7.2,1,11,0.4
		c2.6,0.4,4.3-0.6,5.1-3.3c0-2.5,0.1-4.9,0.2-7.4c0.3-2.3-0.1-4.6-1-6.9c-2.4-1.7-5.1-2.2-7.9-1.3c-3.4,0.4-6.8,0.6-10.2,0.4
		c-1.2,0.4-2.4,0.5-3.7,0.2c-1.6-0.4-3.3-0.6-4.9-0.6c-3.5,0.3-7,0.4-10.5,0.2c-1.2,0.3-2.4,0.2-3.7-0.2c-0.7-0.3-1.2-0.7-1.6-1.3
		c-0.8,0-1.5-0.3-2-0.9c-1.8-2.9-1.3-5.4,1.4-7.6c2.4-1.3,5-1.7,7.7-1.3c3.3,0.7,5.3-0.5,6.1-3.7c-0.5-2.2-1.1-4.4-1.6-6.7
		c-0.1-2.2-0.7-4.3-1.6-6.5c0.5-1.7,0.7-3.7,0.4-5.9c1-2.7,3-4,6.3-3.9c7.6-3.2,13.4-1.4,17.5,5.4c0.3,2,0.4,4,0.4,6.1
		c0.1,2.5,0.6,4.8,1.4,7.1c0.3,3.8,1.8,6.5,4.7,8.2c2.2,0.6,4.3,0.6,6.5,0.2c1.6-0.3,3.4-0.4,5.3-0.4c0.8,0.1,1.7,0.1,2.6,0
		c1.8,0.9,3.4,0.6,4.9-0.6c0.5,1,1.3,1.3,2.4,0.9c2.2-0.1,4.3-0.1,6.3,0c1.8,0.9,3.2,0.5,4.3-1.1c0.8-1.6,1.4-3.4,1.8-5.4
		c0.9-4.5,1.8-9,2.6-13.6c0-2,0.5-4,1.6-5.9c1.1-1,2.4-1.6,4.1-1.7c4.2-0.1,8.4,0,12.6,0.4c1.9-0.4,3.6,0,5.1,1.3
		c1.2,1.6,1.7,3.3,1.4,5.2c-0.5,4.5-1.6,8.7-3,12.8c-1.8,3-1.4,5.6,1,7.6v-0.4c2.8-0.1,5.4,0.6,7.7,2.4c1.8,2.5,2,5,0.8,7.6
		c-3.8,2.3-7.9,3.2-12.4,2.6v-0.4c-2.6,1-5.2,1.1-7.9,0.2c-3.9,0.1-7.7,0.2-11.4,0.2c-2-0.3-4.1-0.4-6.3-0.2c-2.6,0.9-3.6,2.8-3,5.9
		c-0.4,2.9-0.5,5.9-0.2,8.9c0,1.7,0.7,2.8,2,3.3c1.5,0,3,0.2,4.7,0.6c1.3,0.9,2.8,1,4.3,0.4c1.2-0.7,2.6-0.9,4.1-0.4
		c1.5,0.4,3.1,0.6,4.9,0.6s3.6,0.1,5.5,0.4c2.4,0.6,4.8,1.7,7.1,3.3c1.9,2.6,1.9,5.1,0,7.4c-2.6,1.7-5.3,2.3-8.3,1.7
		c-3.7,0.1-7.2,0-10.5-0.4c-6.2-2.5-11-1.1-14.4,3.9c-0.8,6.9-0.9,13.7-0.2,20.4c0,2.7-0.6,5.2-1.8,7.4c-0.8,0.9-1.7,1.2-2.6,1.1
		C693.8,464.1,692.6,464.3,691.4,464.3z"/>
</g>
<path class="st0" d="M3.5,124.7c0-31.1,0-62.2,0-93.4c0-19.3,8.5-28,27.9-28c62.2-0.1,124.5-0.1,186.7,0c19,0,27.6,8.5,27.6,27.4
	c0.1,62.5,0.1,125.1,0,187.6c-0.1,18.8-8.9,27.1-27.9,27.2c-62.2,0.1-124.5,0.1-186.7,0c-18.7,0-27.5-8.8-27.6-27.4
	C3.5,186.9,3.5,155.8,3.5,124.7z M221.1,220.7c0-65,0-128.8,0-193c-64.5,0-128.3,0-192.7,0c0,64.5,0,128.6,0,193
	C92.9,220.7,156.8,220.7,221.1,220.7z"/>
<path class="st4" d="M703.3,232.9c30.7,0,61.3-0.1,92,0c18.5,0.1,27.1,8.6,27.1,27c0.1,61.6,0.1,123.2,0,184.8
	c0,18.1-8.4,26.9-26.3,26.9c-61.9,0.1-123.8,0.1-185.7,0c-18.3,0-26.7-8.3-26.7-26.6c-0.2-61.9-0.2-123.8,0-185.7
	c0-18.1,8.8-26.4,26.8-26.5C641.4,232.8,672.3,232.9,703.3,232.9z M774.6,304.5c0-12.9-10.7-23.7-23.6-23.8
	c-12.9-0.1-23.8,10.5-24.1,23.4c-0.3,13.1,11,24.4,24.1,24.3C763.9,328.3,774.6,317.4,774.6,304.5z M655,280.7
	c-12.9,0.1-23.7,11-23.6,23.8c0,13.1,11.4,24.3,24.5,23.9c13-0.4,23.4-11.3,23.1-24.3C678.7,291.1,667.9,280.5,655,280.7z
	 M679,399.8c-0.2-13-10.8-23.5-23.8-23.5c-13,0.1-23.7,10.7-23.8,23.6c-0.1,13.2,11.2,24.3,24.3,24
	C668.7,423.7,679.1,412.8,679,399.8z M749.8,423.9c12.9,0.6,24-9.6,24.7-22.6c0.8-12.9-9.3-24.1-22.4-24.9
	c-13.3-0.8-24.8,9.6-25.2,22.9C726.5,412.1,737,423.4,749.8,423.9z"/>
<path class="st1" d="M658.3-14.1c30.7,0,61.3-0.1,92,0c18.5,0.1,27.1,8.6,27.1,27c0.1,61.6,0.1,123.2,0,184.8
	c0,18.1-8.4,26.9-26.3,26.9c-61.9,0.1-123.8,0.1-185.7,0c-18.3,0-26.7-8.3-26.7-26.6c-0.2-61.9-0.2-123.8,0-185.7
	c0-18.1,8.8-26.4,26.8-26.5C596.4-14.2,627.3-14.1,658.3-14.1z M729.6,57.5c0-12.9-10.7-23.7-23.6-23.8
	c-12.9-0.1-23.8,10.5-24.1,23.4c-0.3,13.1,11,24.4,24.1,24.3C718.9,81.3,729.6,70.4,729.6,57.5z M610,33.7
	c-12.9,0.1-23.7,11-23.6,23.8c0,13.2,11.4,24.3,24.5,23.9c13-0.4,23.4-11.3,23.1-24.3C633.7,44.1,622.9,33.5,610,33.7z M634,152.8
	c-0.2-13-10.8-23.5-23.8-23.5c-13,0.1-23.7,10.7-23.8,23.6c-0.1,13.2,11.2,24.3,24.3,24C623.7,176.7,634.1,165.8,634,152.8z
	 M704.8,176.9c12.9,0.6,24-9.6,24.7-22.6c0.8-12.9-9.3-24.1-22.4-24.9c-13.3-0.8-24.8,9.6-25.2,22.9
	C681.5,165.1,692,176.4,704.8,176.9z"/>
<path class="st5" d="M374.1,257.1c30.4,0,60.8,0,91.2,0c19.1,0,27.6,8.3,27.7,27.5c0.1,61.4,0.1,122.7,0,184.1
	c0,18.8-8.4,27.2-27.1,27.2c-61.6,0.1-123.3,0.1-184.9,0c-18.4,0-26.8-8.8-26.8-27.5c0-61.4-0.1-122.7,0-184.1
	c0-18.4,8.7-27.2,27-27.2C312.1,257.1,343.1,257.1,374.1,257.1z M278.1,452c57-57,113.8-113.8,170.9-170.8
	c-10.4,0-21.2-0.3-32.1,0.2c-2.4,0.1-5.2,2.3-7.1,4.2C367.3,328,324.8,370.5,282.3,413c-1.7,1.8-3.9,4.1-4,6.3
	C277.9,430.4,278.1,441.5,278.1,452z M297.9,472.3c9.2,0,18.9,0.4,28.6-0.2c3.6-0.2,7.9-1.9,10.5-4.4
	c42.7-42.4,85.2-84.9,127.7-127.5c1.6-1.6,4.1-3.5,4.2-5.3c0.4-11.6,0.2-23.1,0.2-33.4C412,358.4,355.1,415.2,297.9,472.3z
	 M469.2,374c-32.8,32.8-65.8,65.9-98.2,98.3c8.6,0,18.9,0.3,29.3-0.2c2.8-0.1,6-2,8-4c19.1-18.9,38.1-37.9,57-57
	c1.7-1.7,3.6-4.2,3.7-6.4C469.4,393.9,469.2,383,469.2,374z M378,281.2c-11.1,0-22-0.2-32.9,0.2c-2.2,0.1-4.7,2-6.4,3.7
	c-18.9,18.7-37.7,37.5-56.5,56.4c-1.7,1.7-3.8,4.1-3.9,6.3c-0.4,11.1-0.2,22.2-0.2,33.4C311.6,347.6,344.5,314.8,378,281.2z
	 M468.5,472c0-10.1,0-19.2,0-26.7c-8.8,8.8-18,17.9-26.8,26.7C449.7,472,458.8,472,468.5,472z M278.6,308.2c8.9-9,17.9-18,26.5-26.6
	c-7.9,0-16.9,0-26.5,0C278.6,291.1,278.6,300.1,278.6,308.2z"/>
<path class="st1" d="M252.6,377.3c0-31.1,0-62.2,0-93.4c0-19.4,8.5-28,27.9-28.1c62.2-0.1,124.5-0.1,186.7,0
	c19,0,27.6,8.5,27.6,27.4c0.1,62.5,0.1,125.1,0,187.6c0,18.8-8.9,27.1-27.9,27.2c-62.2,0-124.5,0.1-186.7,0
	c-18.7,0-27.5-8.8-27.6-27.4C252.6,439.6,252.6,408.5,252.6,377.3z M470.3,473.3c0-65,0-128.8,0-193c-64.5,0-128.3,0-192.7,0
	c0,64.5,0,128.6,0,193C342,473.3,405.9,473.3,470.3,473.3z"/>
<text transform="matrix(1 0 0 1 24 184)" class="st5 st6 st7">東</text>
<text transform="matrix(1 0 0 1 26 436)" class="st5 st6 st7">北</text>
</svg>
