<?xml version="1.0" encoding="utf-8"?>
<!-- Generator: Adobe Illustrator 23.0.0, SVG Export Plug-In . SVG Version: 6.00 Build 0)  -->
<svg version="1.1" id="圖層_1" xmlns="http://www.w3.org/2000/svg" xmlns:xlink="http://www.w3.org/1999/xlink" x="0px" y="0px"
	 viewBox="0 0 500 500" style="enable-background:new 0 0 500 500;" xml:space="preserve">
<style type="text/css">
	.st0{fill:#222222;stroke:#222222;stroke-miterlimit:10;}
	.st1{display:none;fill:#111111;stroke:#222222;stroke-miterlimit:10;}
	.st2{display:none;fill:#111111;}
	.st3{display:none;}
	.st4{display:inline;stroke:#222222;}
	.st5{fill:#222222;}
	.st6{font-family:'HanWangZonYi';}
	.st7{font-size:200px;}
</style>
<path class="st0" d="M255.6,124.3c0-31.1,0-62.2,0-93.4c0-19.4,8.5-28,27.9-28c62.2-0.1,124.5-0.1,186.7,0c19,0,27.6,8.5,27.6,27.4
	c0.1,62.5,0.1,125.1,0,187.6c0,18.8-8.9,27.1-27.9,27.2c-62.2,0.1-124.5,0.1-186.7,0c-18.7,0-27.5-8.8-27.6-27.4
	C255.6,186.6,255.6,155.5,255.6,124.3z M473.3,220.3c0-65,0-128.8,0-193c-64.5,0-128.3,0-192.7,0c0,64.5,0,128.6,0,193
	C345,220.3,408.9,220.3,473.3,220.3z"/>
<path class="st0" d="M3.5,377.7c0-31.1,0-62.2,0-93.4c0-19.4,8.5-28,27.9-28c62.2-0.1,124.5-0.1,186.7,0c19,0,27.6,8.5,27.6,27.4
	c0.1,62.5,0.1,125.1,0,187.6c-0.1,18.8-8.9,27.1-27.9,27.2c-62.2,0-124.5,0.1-186.7,0c-18.7,0-27.5-8.8-27.6-27.4
	C3.5,439.9,3.5,408.8,3.5,377.7z M221.1,473.7c0-65,0-128.8,0-193c-64.5,0-128.3,0-192.7,0c0,64.5,0,128.6,0,193
	C92.9,473.7,156.8,473.7,221.1,473.7z"/>
<path class="st1" d="M691.1,17.1c30.4,0,60.8,0,91.2,0c19.1,0,27.6,8.3,27.7,27.5c0.1,61.4,0.1,122.7,0,184.1
	c0,18.8-8.4,27.2-27.1,27.2c-61.7,0.1-123.3,0.1-184.9,0c-18.4,0-26.8-8.8-26.8-27.4c0-61.4,0-122.7,0-184.1
	c0-18.4,8.7-27.2,27-27.2C629.2,17.1,660.1,17.1,691.1,17.1z M595.2,212C652.2,155,709,98.2,766,41.2c-10.3,0-21.2-0.3-32.1,0.2
	c-2.4,0.1-5.2,2.3-7.1,4.2C684.3,88,641.8,130.5,599.3,173c-1.7,1.8-3.9,4.1-4,6.3C594.9,190.4,595.2,201.5,595.2,212z M614.9,232.3
	c9.2,0,18.9,0.4,28.6-0.2c3.6-0.2,7.9-1.9,10.5-4.4c42.7-42.3,85.2-84.9,127.7-127.5c1.6-1.6,4.1-3.5,4.2-5.3
	c0.4-11.6,0.2-23.1,0.2-33.4C729,118.3,672.1,175.2,614.9,232.3z M786.2,134c-32.8,32.8-65.8,65.9-98.2,98.3
	c8.6,0,18.9,0.3,29.3-0.2c2.8-0.1,6-1.9,8-4c19.2-18.9,38.1-37.9,57-57c1.7-1.7,3.6-4.2,3.7-6.4C786.4,153.9,786.2,143,786.2,134z
	 M695,41.2c-11.1,0-22-0.2-32.9,0.2c-2.2,0.1-4.7,2-6.4,3.7c-18.9,18.7-37.7,37.5-56.5,56.4c-1.7,1.7-3.8,4.2-3.9,6.3
	c-0.4,11.1-0.2,22.2-0.2,33.4C628.7,107.6,661.5,74.8,695,41.2z M785.5,232c0-10.1,0-19.2,0-26.7c-8.8,8.8-18,17.9-26.8,26.7
	C766.7,232,775.8,232,785.5,232z M595.6,68.2c8.9-9,17.9-18,26.5-26.6c-7.9,0-16.9,0-26.5,0C595.6,51.1,595.6,60.2,595.6,68.2z"/>
<image style="overflow:visible;enable-background:new    ;" width="798" height="798" xlink:href="6F20A302.png"  transform="matrix(-0.1715 0.1679 -0.1679 -0.1715 508.835 377.8536)">
</image>
<path class="st0" d="M3.5,124.7c0-31.1,0-62.2,0-93.4c0-19.3,8.5-28,27.9-28c62.2-0.1,124.5-0.1,186.7,0c19,0,27.6,8.5,27.6,27.4
	c0.1,62.5,0.1,125.1,0,187.6c-0.1,18.8-8.9,27.1-27.9,27.2c-62.2,0.1-124.5,0.1-186.7,0c-18.7,0-27.5-8.8-27.6-27.4
	C3.5,186.9,3.5,155.8,3.5,124.7z M221.1,220.7c0-65,0-128.8,0-193c-64.5,0-128.3,0-192.7,0c0,64.5,0,128.6,0,193
	C92.9,220.7,156.8,220.7,221.1,220.7z"/>
<path class="st2" d="M703.3,232.9c30.7,0,61.3-0.1,92,0c18.5,0.1,27.1,8.6,27.1,27c0.1,61.6,0.1,123.2,0,184.8
	c0,18.1-8.4,26.9-26.3,26.9c-61.9,0.1-123.8,0.1-185.7,0c-18.3,0-26.7-8.3-26.7-26.6c-0.2-61.9-0.2-123.8,0-185.7
	c0-18.1,8.8-26.4,26.8-26.5C641.4,232.8,672.3,232.9,703.3,232.9z M774.6,304.5c0-12.9-10.7-23.7-23.6-23.8
	c-12.9-0.1-23.8,10.5-24.1,23.4c-0.3,13.1,11,24.4,24.1,24.3C763.9,328.3,774.6,317.4,774.6,304.5z M655,280.7
	c-12.9,0.1-23.7,11-23.6,23.8c0,13.1,11.4,24.3,24.5,23.9c13-0.4,23.4-11.3,23.1-24.3C678.7,291.1,667.9,280.5,655,280.7z
	 M679,399.8c-0.2-13-10.8-23.5-23.8-23.5c-13,0.1-23.7,10.7-23.8,23.6c-0.1,13.2,11.2,24.3,24.3,24
	C668.7,423.7,679.1,412.8,679,399.8z M749.8,423.9c12.9,0.6,24-9.6,24.7-22.6c0.8-12.9-9.3-24.1-22.4-24.9
	c-13.3-0.8-24.8,9.6-25.2,22.9C726.5,412.1,737,423.4,749.8,423.9z"/>
<path class="st0" d="M377.3,4.9c30.7,0,61.3-0.1,92,0c18.5,0.1,27.1,8.6,27.1,27c0.1,61.6,0.1,123.2,0,184.8
	c0,18.1-8.4,26.9-26.4,26.9c-61.9,0.1-123.8,0.1-185.7,0c-18.3,0-26.7-8.3-26.7-26.6c-0.2-61.9-0.2-123.8,0-185.7
	c0-18.1,8.8-26.4,26.8-26.5C315.4,4.8,346.3,4.9,377.3,4.9z M448.6,76.5c0-12.9-10.7-23.7-23.6-23.8c-12.9-0.1-23.8,10.5-24.1,23.4
	c-0.3,13.1,11,24.4,24.1,24.3C437.9,100.3,448.6,89.4,448.6,76.5z M329,52.7c-12.9,0.1-23.6,11-23.6,23.8
	c0,13.2,11.4,24.3,24.5,23.9c13-0.4,23.4-11.3,23.1-24.3C352.7,63.1,341.9,52.5,329,52.7z M353,171.8c-0.2-13-10.8-23.5-23.9-23.5
	c-13,0.1-23.7,10.7-23.8,23.6c-0.1,13.2,11.2,24.3,24.4,24C342.7,195.7,353.1,184.8,353,171.8z M423.8,195.9
	c12.9,0.6,24-9.6,24.7-22.6c0.8-12.9-9.3-24.1-22.4-24.9c-13.3-0.8-24.8,9.6-25.2,22.9C400.5,184.1,411,195.4,423.8,195.9z"/>
<path class="st2" d="M374.1,257.1c30.4,0,60.8,0,91.2,0c19.1,0,27.6,8.3,27.7,27.5c0.1,61.4,0.1,122.7,0,184.1
	c0,18.8-8.4,27.2-27.1,27.2c-61.6,0.1-123.3,0.1-184.9,0c-18.4,0-26.8-8.8-26.8-27.5c0-61.4-0.1-122.7,0-184.1
	c0-18.4,8.7-27.2,27-27.2C312.1,257.1,343.1,257.1,374.1,257.1z M278.1,452c57-57,113.8-113.8,170.9-170.8
	c-10.4,0-21.2-0.3-32.1,0.2c-2.4,0.1-5.2,2.3-7.1,4.2C367.3,328,324.8,370.5,282.3,413c-1.7,1.8-3.9,4.1-4,6.3
	C277.9,430.4,278.1,441.5,278.1,452z M297.9,472.3c9.2,0,18.9,0.4,28.6-0.2c3.6-0.2,7.9-1.9,10.5-4.4
	c42.7-42.4,85.2-84.9,127.7-127.5c1.6-1.6,4.1-3.5,4.2-5.3c0.4-11.6,0.2-23.1,0.2-33.4C412,358.4,355.1,415.2,297.9,472.3z
	 M469.2,374c-32.8,32.8-65.8,65.9-98.2,98.3c8.6,0,18.9,0.3,29.3-0.2c2.8-0.1,6-2,8-4c19.1-18.9,38.1-37.9,57-57
	c1.7-1.7,3.6-4.2,3.7-6.4C469.4,393.9,469.2,383,469.2,374z M378,281.2c-11.1,0-22-0.2-32.9,0.2c-2.2,0.1-4.7,2-6.4,3.7
	c-18.9,18.7-37.7,37.5-56.5,56.4c-1.7,1.7-3.8,4.1-3.9,6.3c-0.4,11.1-0.2,22.2-0.2,33.4C311.6,347.6,344.5,314.8,378,281.2z
	 M468.5,472c0-10.1,0-19.2,0-26.7c-8.8,8.8-18,17.9-26.8,26.7C449.7,472,458.8,472,468.5,472z M278.6,308.2c8.9-9,17.9-18,26.5-26.6
	c-7.9,0-16.9,0-26.5,0C278.6,291.1,278.6,300.1,278.6,308.2z"/>
<path class="st0" d="M252.6,377.3c0-31.1,0-62.2,0-93.4c0-19.4,8.5-28,27.9-28.1c62.2-0.1,124.5-0.1,186.7,0
	c19,0,27.6,8.5,27.6,27.4c0.1,62.5,0.1,125.1,0,187.6c0,18.8-8.9,27.1-27.9,27.2c-62.2,0-124.5,0.1-186.7,0
	c-18.7,0-27.5-8.8-27.6-27.4C252.6,439.6,252.6,408.5,252.6,377.3z M470.3,473.3c0-65,0-128.8,0-193c-64.5,0-128.3,0-192.7,0
	c0,64.5,0,128.6,0,193C342,473.3,405.9,473.3,470.3,473.3z"/>
<g class="st3">
	<path class="st4" d="M637,405.7c-2-0.1-3.8-0.9-5.3-2.2c-1-1.4-1.2-3-0.8-4.8c1.1-3.2,3.3-5,6.7-5.6c1.9-0.4,3.7-1.1,5.5-2
		c2-0.9,4.1-1.7,6.3-2.4c2.2-0.6,4.3-1.4,6.3-2.4c1.8-1.3,3.7-1.7,5.7-1.3c2.3-1.9,5.1-3.1,8.3-3.7c1.3-2.3,1.5-4.8,0.6-7.6
		c-0.1-4.5,0.1-9,0.6-13.4c0.1-4,0.1-8.2-0.2-12.4c-0.1-4.3-0.3-8.6-0.4-12.8c0-1.4,0.1-3,0.4-4.5c-0.1-1.9-1-3.3-2.4-4.1
		c-3.4-1.1-6.9-1.7-10.5-1.7v0.4c-1.2-0.3-2.4-0.4-3.5-0.2c-0.7,0.1-1.2,0.1-1.6-0.2c-1-0.3-1.9-0.4-2.8-0.2c-0.7,0.1-1.3,0.1-2,0
		c-1,0.1-1.8,0.3-2.6,0.4c-1.8,0.3-3.4,0.1-4.9-0.4c-0.5,0.7-1.2,0.9-2,0.6c-1.3-0.3-2.3-1.1-2.8-2.4c-2-2.6-2.2-5.3-0.4-8
		c2-0.9,4.3-1.2,6.7-1.1c1.3-0.3,2.8-0.6,4.3-0.9c1.9,0.1,3.8,0.1,5.7,0c1.2-0.4,2.4-0.8,3.7-1.1c1.2-0.3,2.4-0.1,3.7,0.4
		c0.9-0.3,1.8-0.3,2.6,0c1.1,0.6,2.2,0.6,3.5,0.2c2.8,0.6,4.9-0.4,6.1-3c0.4-2.6,0.4-5.3,0-8.2c0-8.1-0.1-16.2-0.2-24.3
		c-1.9-6.8-0.5-12.1,4.3-16c3-0.4,6-0.7,9.1-0.9c3.1-0.6,6.2-0.3,9.1,0.9c2.2,2,2.9,4.5,2.2,7.4c-0.3,3.9-0.4,7.7-0.4,11.3
		c-0.4,3.8-0.6,7.5-0.6,11.3c-0.1,4.2-0.1,8.3,0.2,12.4c-0.3,7.9-0.4,15.9-0.4,23.8c0.1,8.1,0.3,16.1,0.4,24
		c-0.1,3.9-0.1,7.7,0.2,11.3c-0.7,3.6-0.3,6.9,1,10c2,1,4.3,1.5,6.7,1.5c1.1,0.7,2.4,0.9,3.9,0.6c1-0.4,2-0.3,3,0.4c2,1.6,2,3.3,0,5
		c-2.3,1.9-4.9,3.2-7.7,3.9c-3.1,1.3-6,2.7-8.7,4.1c-3.1,1.6-6.3,2.3-9.5,2.2c-3.1,0.7-6,1.6-8.7,2.6c-3.1,1.5-6.2,2.6-9.3,3.5
		c-1.9,0.4-3.7,0.9-5.5,1.3c-1.6,0.3-3,0.9-4.3,1.7c-3,0.9-5.3,2.2-6.9,4.1c-2.2-0.1-4.2,0.3-6.1,1.3c-1.2,0.3-2.4,0.4-3.5,0.4
		C638.5,404.8,637.7,405,637,405.7z M783.4,433.5c-1.8-1.2-3.6-1.3-5.5-0.4c-1.6-0.1-3.2-0.4-4.7-0.9c-2,0-4.1,0.1-6.1,0.2
		c-3.5-0.4-7-0.7-10.5-0.9c-3.5,0.3-6.9,0-10.2-0.9c-2.8-0.6-5.5-1.7-7.9-3.5c-0.5-1-1.3-1.7-2.2-2c-1.2-0.3-1.9-1.1-2-2.4
		c-1-2.6-1.3-5.4-1.2-8.5c-0.1-3.9-0.2-7.9-0.2-12.1c0-16.3,0.1-32.6,0.4-48.7c0.3-16.5,0.5-33,0.8-49.6c-0.3-8.1-0.5-16.2-0.8-24.3
		c0-8.2,0-16.5,0-24.7c-0.3-2.6-0.2-5.2,0.2-7.8c1.3-2.9,3.7-4.2,6.9-3.9c2.8-0.3,5.8-0.4,8.7-0.2c0.7,0.4,1.5,0.9,2.4,1.3
		c1.6-0.3,3.2-0.1,4.7,0.4c2,2.2,2.8,4.8,2.4,7.8c-0.1,4-0.2,8.1-0.2,12.1c0,8.2,0.1,16.4,0.4,24.5c-2.2,7.7-0.5,12.6,5.1,15
		c6.9-1.9,13.7-4.2,20.5-6.9c3.1-1.3,6.2-2.7,9.3-4.1c1.2-0.9,2.6-1.6,4.3-2.2c1.8,0,3.6,0,5.5,0c1.6-0.1,3.3-0.4,4.9-0.9
		c1.6,0.3,3.3,0.4,4.9,0.4c1.1-0.1,2.2,0.1,3.5,0.6c0.8,1.3,0.9,2.5,0.2,3.5c-2.2,2.2-4.5,3.6-7.1,4.3c-1.3,0.9-2.6,1.7-3.9,2.4
		c-1.8,0.4-3.5,0.7-5.1,0.9c-1.5,0.7-2.9,1.3-4.3,1.7c-1.5,0.4-3,0.8-4.5,1.1c-3.4,1.5-6.8,2.6-10.2,3.5c-2.8,1-5.6,2-8.3,3
		c-2.2,0.4-4.4,0.8-6.7,1.1c-2.2,0.6-4.1,1.5-5.7,2.8c-1.9,2.2-2.8,4.8-2.6,7.8c-0.5,7.8-0.6,15.5-0.2,23.2c0,8.1-0.3,16-1,23.8
		c-0.3,7.8-0.5,15.6-0.8,23.4c-1.5,7.4-0.5,14.1,3,20.4c4.7,4,10.2,5.9,16.2,5.4c2.4,0.4,4.9,0.6,7.5,0.4c1.6-0.3,3,0,4.1,0.9
		c1.2,0.4,2.4,0.4,3.5-0.2c0.7-1.1,0.7-2.4,0.2-3.7c0-1.7,0.2-3.5,0.6-5.4c-0.1-1.7,0-3.5,0.4-5.2c0.9-2.7,2.9-4.1,5.9-4.1
		c3.7-0.3,7.3-0.6,11-1.1c2.3-0.9,4.3-0.6,6.1,0.9c0.7,1.3,1,2.7,1,4.1c0,2,0.1,4,0.2,6.1c0.4,3.9,0.3,7.7-0.4,11.5
		c-0.7,3.2-2.2,4.5-4.7,4.1c-1,1.1-2.1,1.6-3.5,1.3c-2.7,0.6-5.2,1.4-7.5,2.6C794.7,432.8,789,433.5,783.4,433.5z"/>
</g>
<text transform="matrix(1 0 0 1 24.4403 183.9637)" class="st5 st6 st7">東</text>
<text transform="matrix(1 0 0 1 24.4401 436.9637)" class="st5 st6 st7">南</text>
<path class="st5" d="M387.9,415.2c-5.5-5.6-10.6-10.9-15.8-16.1c-2.8-2.9-4.8-6.2-5.1-10.3c-0.6-6.7,2.9-12.8,8.9-15.7
	c6.1-2.9,13.1-1.7,18.2,3.3c4.8,4.7,9.4,9.5,14.1,14.3c0.7,0.7,1.4,1.4,2.4,2.4c0.8-0.8,1.5-1.5,2.2-2.2c4.6-4.6,9.3-9.1,13.9-13.7
	c2.7-2.7,5.7-3.6,9.3-2.2c3.7,1.5,5.1,4.4,5.1,8.3c-0.1,16.9-0.1,33.7-0.3,50.6c-0.1,7.5-5.1,12.4-12.5,12.3
	c-16.9-0.2-33.7-0.5-50.6-0.7c-3.8-0.1-6.8-1.5-8.2-5.2c-1.4-3.7-0.3-6.7,2.5-9.4C377.2,425.8,382.4,420.6,387.9,415.2z"/>
</svg>
