<svg id="圖層_1" data-name="圖層 1" xmlns="http://www.w3.org/2000/svg" viewBox="0 0 487 482.74"><defs><style>.cls-1,.cls-2{fill:#222;}.cls-2{font-size:196.8px;font-family:KFhimaji-90ms-RKSJ-H, KFhimaji;}</style></defs><title>ES</title><path class="cls-1" d="M122.56,491.33q-44.39,0-88.79,0c-2.87,0-5.75-.1-8.61-.32-1.31-.1-3,.41-3.72-1.46-.09-.23-.91-.09-1.31-.29a14.63,14.63,0,0,1-1.72-1.14c-.2-.14-.38-.41-.59-.43-2.16-.16-3.3-1.64-4.43-3.24-1-1.33-2.31-2.41-3.05-3.84a14.52,14.52,0,0,1-1.8-5.42C8.17,469.79,8,464.37,8,459Q8,373.68,8,288.4a71.86,71.86,0,0,1,.6-10.79c.3-1.87,1.63-3.64,2.71-5.32A29.79,29.79,0,0,1,15,267.76a20.06,20.06,0,0,1,3.28-2.26L20,264.34c.1-.07.13-.28.23-.31a37,37,0,0,1,6-1.8,50.92,50.92,0,0,1,7.21-.2H211.6c1.94,0,3.88,0,5.81.09,1.35,0,2.73-.17,3.81,1.13.37.44,1.37.35,2.07.53.87.22,2.13-.25,2.27,1.3,0,.13.42.33.64.33,2.17.06,3.38,1.32,4.46,3.08.62,1,1.83,1.61,2.77,2.41a.35.35,0,0,1,.12.15c.66,1.73,1.31,3.46,2,5.18.33.83.72,1.63,1.05,2.45a5.2,5.2,0,0,1,.5,1.63c.11,2.27.18,4.54.18,6.81q0,90,0,180c0,1.8,0,3.61-.12,5.41-.09,1.31.34,2.88-1.36,3.64-.12,0-.12.36-.18.54a39.89,39.89,0,0,1-1.9,5.35c-.49,1-1.68,1.58-2.5,2.4s-1.45,1.68-2.25,2.44a8.71,8.71,0,0,1-2.48,2A29.37,29.37,0,0,1,220,491a57.3,57.3,0,0,1-8.4.37Q167.06,491.35,122.56,491.33ZM30.2,285.57v2.23q0,89,0,178c0,3.28.05,3.33,3.37,3.33H213.85V285.57Z" transform="translate(-8 -8.6)"/><path class="cls-1" d="M494.75,124.17q0,44.29,0,88.59c0,3-.11,6-.24,9-.11,2.71-1.52,4.86-3.14,6.9a58.85,58.85,0,0,1-3.64,4.63,14.58,14.58,0,0,1-3.37,2.19c-1.73,1-3.5,1.85-5.28,2.7a5,5,0,0,1-1.91.43c-2.2.09-4.41.12-6.61.12H291.17c-2.07,0-4.14,0-6.21-.07-1.19,0-2.53.32-3.29-1.2-.17-.33-1.11-.25-1.68-.4-1-.26-2.55.5-2.79-1.38,0-.09-.35-.19-.53-.19-2.25.08-3.25-1.6-4.44-3.06-.65-.79-1.48-1.43-2.16-2.2a17.81,17.81,0,0,1-1.12-1.7c-.39-.56-.8-1.1-1.2-1.63-.08-.1-.28-.18-.27-.25.36-2.4-1.42-4.19-1.79-6.37a21.83,21.83,0,0,1-.11-3.8q0-92.9,0-185.78a31.2,31.2,0,0,1,.08-3.21c.09-1-.31-2.24,1.21-2.59.09,0,.24-.22.22-.28-.67-2.27,1.61-3.45,2-5.39a6,6,0,0,1,2-2.67c1.55-1.5,3.22-2.87,4.84-4.3.09-.09.14-.26.24-.3a31.09,31.09,0,0,1,5.66-1.89,63,63,0,0,1,8.8-.47q90,0,180,0a41,41,0,0,1,8.38.48,10.7,10.7,0,0,1,5.76,2.74c.85.89,2.56.57,3.3,2.11.42.88,1.83,1.24,2.38,2.09,1,1.56,1.63,3.35,2.51,5,3.29,6.14,1.74,12.78,1.78,19.18C494.86,68.86,494.75,96.52,494.75,124.17ZM289,215.26H472.57V35.46c0-3.63-.1-3.73-3.67-3.73H291.52c-.78,0-1.55.08-2.49.13Z" transform="translate(-8 -8.6)"/><text class="cls-2" transform="translate(22.36 441.01) scale(0.96 1)">南</text><path class="cls-1" d="M488.11,483.17l-4.31,3.5c-.05,0-.07.13-.12.15-1.81.67-3.57,1.66-5.44,1.94a55.83,55.83,0,0,1-8.39.44c-17.23,0-34.47,0-51.7.05a20.36,20.36,0,0,0-3,.67,8.42,8.42,0,0,1-2.35.07,37.93,37.93,0,0,0-4.41-.74q-29.36-.08-58.71,0a21.4,21.4,0,0,0-3.19.69,8.5,8.5,0,0,1-2.36.07,31.5,31.5,0,0,0-4-.76c-16.5-.05-33,0-49.5,0-2.8,0-5.61-.14-8.41-.32-1.4-.09-3,.16-3.89-1.46-.13-.23-.72-.23-1.11-.27-1.78-.19-2.77-1.53-3.89-2.67-.71-.72-1.42-1.43-2.16-2.1s-1.74-1.44-2.55-2.21c-.2-.19-.12-.64-.27-.92-.37-.69-.8-1.36-1.22-2-.07-.1-.27-.14-.3-.24a44.08,44.08,0,0,1-1.72-6.26,49.86,49.86,0,0,1-.14-6.81q0-89.28,0-178.55c0-2,0-4,.07-6,.05-1.18-.33-2.51,1.19-3.28.36-.19.34-1.22.39-1.88.1-1.15.11-2.05,1.44-2.84,1-.6,1.19-2.43,2-3.52s2.26-1.72,2.77-2.85c.87-1.92,3.62-.84,4.14-3,0,0,.1-.1.16-.11a56.16,56.16,0,0,1,6.9-1.83,46.64,46.64,0,0,1,6.8-.16H468.6c2.21,0,4.41,0,6.61.11,1.39.06,3-.28,3.9,1.33.16.27.9.14,1.31.33.75.34,1.45.78,2.18,1.17a2.53,2.53,0,0,0,.88.38c1.85.19,2.84,1.49,3.85,2.83a10.63,10.63,0,0,0,1.8,1.93c1.64,1.34,2.23,3.39,3.37,4.93,1.71,2.31,1.3,4.59,1.53,6.92.21,2.18.15,4.4.15,6.6q0,87.78,0,175.55c0,2.61-.4,5.25,0,7.8.45,3.23-1.46,5.67-2.24,8.46-.37,1.32-1.82,2.32-2.7,3.53a8.46,8.46,0,0,0-.76,1.79ZM436,283.33c-5.28,0-10.56,0-15.84,0-1,0-2.24-.06-2.88.48a70.16,70.16,0,0,0-4.94,5.11c-2.4,2.57-4.76,5.16-7.18,7.7-1.63,1.71-3.32,3.34-5,5-.64.64-1.26,1.29-1.95,1.87a33.38,33.38,0,0,0-2.7,2.14c-.83.86-1.34,2-2.2,2.85-2,1.85-4.15,3.51-6.12,5.36-1.72,1.61-3.27,3.38-4.9,5.08-.64.66-1.32,1.29-1.93,2-1.26,1.39-2.43,2.87-3.74,4.21-.82.85-1.9,1.44-2.73,2.28-1.45,1.46-2.74,3.09-4.22,4.53s-2.93,2.32-4.21,3.66c-1.93,2-3.66,4.16-5.51,6.23-.59.66-1.32,1.2-2,1.81-.91.87-1.81,1.74-2.69,2.63s-1.53,1.7-2.37,2.48c-1.94,1.79-4,3.47-5.89,5.29-1.61,1.54-3.06,3.23-4.61,4.83-.68.71-1.47,1.32-2.13,2.05-1.26,1.41-2.37,2.94-3.69,4.28s-3.07,2.62-4.49,4.05c-1.9,1.92-3.63,4-5.5,6-1.53,1.6-3.17,3.08-4.73,4.63-1.25,1.25-2.41,2.6-3.71,3.81s-3.06,2.51-4.47,3.89-2.72,3.09-4.19,4.53c-1.32,1.3-2.92,2.32-4.2,3.66-1.93,2-3.67,4.2-5.53,6.26a23.42,23.42,0,0,1-2,1.8c-.85.76-1.73,1.49-2.53,2.31-1.4,1.42-2.62,3-4.13,4.32s-2.93,2.68-2.9,5.1c.09,10.35,0,20.71,0,31.07,0,.53-.14,1.18.11,1.56a2.15,2.15,0,0,0,1.33.51c.87-1.59,2.4-2.44,3.67-3.61,2-1.8,3.58-4,5.36-6a21.52,21.52,0,0,1,1.91-1.91c1.46-1.26,3-2.39,4.4-3.74s2.49-3,3.76-4.4a21.41,21.41,0,0,1,1.91-1.9c1.45-1.27,3-2.42,4.37-3.78s2.52-2.92,3.8-4.37a21.31,21.31,0,0,1,1.91-1.89,30.93,30.93,0,0,0,2.72-2.22c1.32-1.38,2.45-2.93,3.73-4.36.95-1.05,2-2.06,3-3,.87-.78,1.89-1.41,2.77-2.2a26.26,26.26,0,0,0,2.19-2.28c.73-.82,1.32-1.79,2.11-2.54,1.44-1.34,3.07-2.49,4.45-3.88s2.44-3,3.74-4.37c1.55-1.68,3.19-3.28,4.82-4.88.72-.71,1.49-1.37,2.26-2a29.55,29.55,0,0,0,2.59-2.09c1.39-1.43,2.59-3,4-4.44s3-2.47,4.37-3.86c1.87-1.93,3.56-4,5.34-6a19.13,19.13,0,0,1,1.91-1.91,33.43,33.43,0,0,0,2.8-2.15c1.3-1.39,2.32-3.06,3.67-4.41s3.07-2.46,4.51-3.8a29.53,29.53,0,0,0,2-2.62,19.57,19.57,0,0,1,2-2c.92-.82,2-1.49,2.82-2.38,1.31-1.37,2.39-3,3.75-4.29s3.17-2.25,4.38-3.69a26.47,26.47,0,0,1,5-5,11.39,11.39,0,0,0,2-2c.71-.84,1.29-1.81,2-2.62,1.52-1.63,3.08-3.23,4.69-4.75.86-.81,1.92-1.39,2.8-2.17a27.73,27.73,0,0,0,2.14-2.32c.73-.83,1.36-1.76,2.16-2.51,1.44-1.34,3-2.51,4.42-3.9s2.45-3,3.76-4.36c1.52-1.63,3.11-3.19,4.73-4.71.86-.81,1.88-1.43,2.76-2.22a27.76,27.76,0,0,0,2.2-2.27c.73-.82,1.3-1.8,2.1-2.55,1.43-1.34,3.07-2.47,4.46-3.86s2.43-3,3.73-4.37c1.56-1.68,3.2-3.28,4.83-4.89.72-.71,1.5-1.35,2.24-2,.37-.34.72-.71,1.07-1.06-.53-.23-1.06-.67-1.6-.67C446.86,283.32,441.45,283.34,436,283.33ZM304.79,467h3c9.49,0,19-.07,28.46.05,2.59,0,4.61-.5,6.12-2.77.57-.86,1.72-1.31,2.49-2.07,1.4-1.37,2.71-2.84,4.07-4.26,1.78-1.86,3.55-3.74,5.36-5.56,1.51-1.51,3.12-2.92,4.62-4.43,1.81-1.83,3.54-3.74,5.35-5.57,1.55-1.56,3.19-3,4.74-4.58,1.77-1.78,3.44-3.66,5.23-5.42,1.48-1.45,3.11-2.75,4.61-4.18,2.07-2,4.09-4,6.1-6.07,1.38-1.4,2.7-2.85,4.06-4.27,1.77-1.86,3.54-3.73,5.35-5.56,1.54-1.56,3.14-3.06,4.73-4.58,2-1.9,4-3.74,6-5.68,1.39-1.37,2.64-2.9,4-4.28,1.94-1.94,4-3.78,5.93-5.71,1.39-1.38,2.68-2.86,4-4.27,1.84-1.88,3.7-3.76,5.57-5.61,1.43-1.42,2.94-2.76,4.36-4.19,1.91-1.92,3.74-3.91,5.64-5.82,1.42-1.43,3-2.76,4.37-4.2,1.9-1.91,3.72-3.9,5.62-5.82,1.45-1.48,3-2.87,4.46-4.34,1.85-1.87,3.63-3.81,5.51-5.66,1.39-1.37,3-2.56,4.32-4,1.88-1.93,3.56-4.06,5.47-6s4.06-3.43,5.8-5.4a6.21,6.21,0,0,0,1.88-4.41c-.17-9.88-.08-19.77-.08-29.66v-3.05a36.22,36.22,0,0,0-3.22,2.38c-1.55,1.45-3,3-4.49,4.54-1.29,1.28-2.66,2.49-3.94,3.78-2,2.05-4,4.13-6,6.2-1.42,1.49-2.85,3-4.26,4.46-1.19,1.27-2.31,2.63-3.58,3.82-2,1.9-4.22,3.64-6.24,5.55s-4.13,4.16-6.15,6.27c-1.39,1.44-2.72,2.93-4.07,4.4-1.19,1.28-2.31,2.63-3.58,3.82-2,1.9-4.22,3.63-6.23,5.55s-4.13,4.16-6.16,6.27c-1.38,1.44-2.72,2.92-4.07,4.39-1.18,1.29-2.26,2.67-3.53,3.85-2,1.9-4.24,3.6-6.26,5.51s-4.2,4.2-6.26,6.35c-1.37,1.44-2.67,2.95-4,4.41-1.17,1.28-2.29,2.61-3.55,3.79-2,1.9-4.25,3.62-6.26,5.55s-4,4.15-6,6.19c-1.33,1.34-2.76,2.57-4.07,3.91-2,2-3.84,4.1-5.82,6.09-1.33,1.34-2.81,2.51-4.14,3.83-2,2-4,4.17-6,6.21-1.32,1.34-2.74,2.58-4.07,3.91-2,2-4,4.11-6,6.16-1.33,1.33-2.74,2.59-4,4s-2.3,2.95-3.64,4.23c-2,1.89-4.2,3.47-6.12,5.39-2.53,2.52-4.79,5.31-7.3,7.83s-5.27,4.85-7.84,7.34q-4.16,4-8.14,8.2A25.74,25.74,0,0,0,304.79,467Zm68.81-.2c.75.08,1.14.17,1.53.17,11,0,22,0,33.06.07,1.87,0,2.33-1.64,3.58-2.34a15.28,15.28,0,0,0,2.76-2.7c1.33-1.31,2.71-2.57,4-3.92s2.45-2.91,3.79-4.24,3.14-2.61,4.56-4,2.34-3,3.7-4.35c2-1.95,4.28-3.62,6.26-5.59s3.47-4.06,5.36-5.94,4.27-3.66,6.25-5.64,3.7-4.14,5.59-6.17c1.55-1.66,3.18-3.25,4.78-4.86.68-.67,1.37-1.33,2.08-2,1.45-1.32,3-2.57,4.36-3.93a54.31,54.31,0,0,0,4.33-4.52c1-1.18,2.46-1.95,2.44-3.92-.08-10.75,0-21.5-.06-32.25a7.21,7.21,0,0,0-.39-1.67,14,14,0,0,0-1.23.91c-.6.56-1.15,1.19-1.74,1.77s-1.29,1.31-2,1.89a28,28,0,0,0-2.65,2c-1.35,1.4-2.51,3-3.8,4.43a22.6,22.6,0,0,1-2.07,2c-.85.75-1.83,1.38-2.61,2.21-1.32,1.4-2.44,3-3.81,4.34s-3.08,2.42-4.44,3.8-2.44,3.05-3.76,4.49c-1.56,1.69-3.24,3.27-4.89,4.88-.69.69-1.39,1.38-2.14,2s-1.82,1.26-2.58,2c-1.4,1.44-2.67,3-4,4.49-.6.65-1.26,1.23-1.92,1.82-.84.77-1.76,1.46-2.54,2.29s-1.29,1.82-2.09,2.56c-1.43,1.34-3.09,2.45-4.47,3.84s-2.41,3.1-3.79,4.47-3.24,2.41-4.57,3.88a48.59,48.59,0,0,1-4.89,5c-2.05,1.69-3.63,3.95-5.43,5.95a23,23,0,0,1-2,2.08c-1.43,1.24-3,2.32-4.34,3.65s-2.51,3-3.8,4.42a24,24,0,0,1-2.05,2c-.86.75-1.85,1.36-2.63,2.19-1.32,1.4-2.43,3-3.8,4.36s-3.12,2.38-4.39,3.82c-.51.57-.74,1.15-1.56,1.59S374.32,465.72,373.6,466.8Zm-6.53-183.47c-5.35,0-10.69.14-16-.07-2.06-.08-2.75,1.57-4.07,2.38-.92.57-1.35,1.89-2.18,2.68-2,1.86-4.05,3.58-6.06,5.39a19.65,19.65,0,0,0-1.81,1.84c-1.26,1.46-2.4,3-3.77,4.39s-3.11,2.52-4.52,3.93-2.42,3.08-3.81,4.43c-1.93,1.89-4.05,3.58-6.08,5.37a19.86,19.86,0,0,0-1.84,1.83c-1.26,1.46-2.36,3.07-3.71,4.43s-3.09,2.53-4.55,3.89c-1.69,1.57-3.26,3.26-4.87,4.89-.63.64-1.29,1.26-1.88,1.94-1.26,1.45-2.29,3.2-3.79,4.32a34.56,34.56,0,0,0-4.65,4.64,21.61,21.61,0,0,1-2.34,2.25c-1.51,1.23-2.91,2.31-2.88,4.66.11,10.42,0,20.84,0,31.26,0,.53-.12,1.21.14,1.56s1.25.62,1.41.45c1.34-1.41,2.39-3.14,3.87-4.36a58.88,58.88,0,0,0,5-5c2.14-2.25,4.43-4.37,6.63-6.57,1.63-1.64,3.33-3.22,4.83-5a25,25,0,0,1,2.28-2.07c.89-.81,1.79-1.62,2.63-2.48s1.4-1.68,2.19-2.42c1.42-1.34,3-2.51,4.37-3.9s2.42-3,3.78-4.36,3-2.55,4.46-3.86a22.7,22.7,0,0,0,1.84-2c.78-.88,1.44-1.88,2.29-2.67,1.38-1.29,3-2.35,4.3-3.7,1.93-2,3.66-4.18,5.52-6.25a21.27,21.27,0,0,1,1.94-1.72c.91-.79,1.85-1.54,2.69-2.4s1.39-1.81,2.21-2.58c1.42-1.32,3-2.44,4.38-3.82s2.41-3.09,3.8-4.45c1.94-1.89,4.07-3.58,6.1-5.38a17.76,17.76,0,0,0,1.86-1.82c1.25-1.47,2.38-3.05,3.69-4.47a43.76,43.76,0,0,1,4.86-4.77,9.53,9.53,0,0,0,2-1.95c.7-1,1.93-1.54,2.79-2.42,1.36-1.4,2.58-2.92,3.88-4.37a16,16,0,0,1,1.21-1.12,7.49,7.49,0,0,0-1.91-.59C377.89,283.31,372.48,283.33,367.07,283.33Zm75.26,183.31a28,28,0,0,0,3,.35q11.82,0,23.63,0c2.86,0,3.05-.2,3.05-3.09q0-11.61,0-23.23c0-.65-.08-1.3-.17-2.7-1.29.84-2.2,1.32-3,2s-1.37,1.48-2.12,2.15c-1.43,1.26-3,2.37-4.36,3.72s-2.46,3.08-3.85,4.47-2.93,2.46-4.36,3.73a26.45,26.45,0,0,0-1.91,2c-.88.95-1.73,1.95-2.65,2.85-1.31,1.28-2.74,2.43-4,3.75C444.53,463.75,443.65,465,442.33,466.64ZM289,311.7c2.34-2.48,4.26-4.62,6.29-6.64s4.11-3.76,6.07-5.72c2.5-2.49,4.9-5.09,7.36-7.62,1.55-1.6,3.14-3.18,4.73-4.74.75-.72,1.56-1.38,2.33-2.08.29-.26.56-.55.83-.83a3.07,3.07,0,0,0-.91-.57,11.06,11.06,0,0,0-2-.17H290.33c-.64,0-1.27.08-2,.13,0,9,0,17.67,0,26.4A6.25,6.25,0,0,0,289,311.7Z" transform="translate(-8 -8.6)"/><path class="cls-1" d="M402.15,162.43l-78-78c-4.32-4.32-8.72-8.57-12.94-13-6.71-7-6.74-16.12-.21-22.9,6.77-7,16.13-7.33,23.35-.16q41.79,41.51,83.35,83.25c2.11,2.11,4.22,4.23,7.41,7.41.41-3.61.77-5.65.85-7.67.86-20.58,1.63-41.15,2.51-61.73.48-11.2,6.81-18.56,16.21-19.07,9.92-.53,15.7,6.2,15.24,18q-2,52.17-4.2,104.35c-.55,13.24-6.37,19.2-19.48,19.75Q382.63,195,329,197.05c-11,.43-18-5.56-17.68-14.89s7.74-16.1,18.75-16.57c21.07-.9,42.13-1.7,63.2-2.56C395.65,162.93,398,162.71,402.15,162.43Z" transform="translate(-8 -8.6)"/><path class="cls-1" d="M241.75,123.17q0,44.29,0,88.59c0,3-.11,6-.24,9-.11,2.71-1.52,4.86-3.14,6.9a58.85,58.85,0,0,1-3.64,4.63,14.58,14.58,0,0,1-3.37,2.19c-1.73,1-3.5,1.85-5.28,2.7a5,5,0,0,1-1.91.43c-2.2.09-4.41.12-6.61.12H38.17c-2.07,0-4.14,0-6.21-.07-1.19,0-2.53.32-3.29-1.2-.17-.33-1.11-.25-1.68-.4-1-.26-2.55.5-2.79-1.38,0-.09-.35-.19-.53-.19-2.25.08-3.25-1.6-4.44-3.06-.65-.79-1.48-1.43-2.16-2.2a17.81,17.81,0,0,1-1.12-1.7c-.39-.56-.8-1.1-1.2-1.63-.08-.1-.28-.18-.27-.25.36-2.4-1.42-4.19-1.79-6.37a21.83,21.83,0,0,1-.11-3.8q0-92.9,0-185.78a31.2,31.2,0,0,1,.08-3.21c.09-1-.31-2.24,1.21-2.59.09,0,.24-.22.22-.28-.67-2.27,1.61-3.45,2-5.39a6,6,0,0,1,2-2.67c1.55-1.5,3.22-2.87,4.84-4.3.09-.09.14-.26.24-.3a31.09,31.09,0,0,1,5.66-1.89,63,63,0,0,1,8.8-.47q90,0,180,0a41,41,0,0,1,8.38.48,10.7,10.7,0,0,1,5.76,2.74c.85.89,2.56.57,3.3,2.11.42.88,1.83,1.24,2.38,2.09,1,1.56,1.63,3.35,2.51,5,3.29,6.14,1.74,12.78,1.78,19.18C241.86,67.86,241.75,95.52,241.75,123.17ZM36,214.26H219.57V34.46c0-3.63-.1-3.73-3.67-3.73H38.52c-.78,0-1.55.08-2.49.13Z" transform="translate(-8 -8.6)"/><text class="cls-2" transform="translate(30.36 187.01) scale(0.96 1)">東</text></svg>