<?xml version="1.0" encoding="utf-8"?>
<!-- Generator: Adobe Illustrator 23.0.0, SVG Export Plug-In . SVG Version: 6.00 Build 0)  -->
<svg version="1.1" id="圖層_1" xmlns="http://www.w3.org/2000/svg" xmlns:xlink="http://www.w3.org/1999/xlink" x="0px" y="0px"
	 viewBox="0 0 500 500" style="enable-background:new 0 0 500 500;" xml:space="preserve">
<style type="text/css">
	.st0{fill:#222222;stroke:#222222;stroke-miterlimit:10;}
	.st1{display:none;fill:#111111;stroke:#222222;stroke-miterlimit:10;}
	.st2{display:none;fill:#111111;}
	.st3{display:none;}
	.st4{display:inline;stroke:#222222;}
	.st5{fill:#222222;}
	.st6{font-family:'HanWangZonYi';}
	.st7{font-size:200px;}
</style>
<path class="st0" d="M255.6,124.3c0-31.1,0-62.2,0-93.4c0-19.4,8.5-28,27.9-28c62.2-0.1,124.5-0.1,186.7,0c19,0,27.6,8.5,27.6,27.4
	c0.1,62.5,0.1,125.1,0,187.6c0,18.8-8.9,27.1-27.9,27.2c-62.2,0.1-124.5,0.1-186.7,0c-18.7,0-27.5-8.8-27.6-27.4
	C255.6,186.6,255.6,155.5,255.6,124.3z M473.3,220.3c0-65,0-128.8,0-193c-64.5,0-128.3,0-192.7,0c0,64.5,0,128.6,0,193
	C345,220.3,408.9,220.3,473.3,220.3z"/>
<path class="st0" d="M3.5,377.7c0-31.1,0-62.2,0-93.4c0-19.4,8.5-28,27.9-28c62.2-0.1,124.5-0.1,186.7,0c19,0,27.6,8.5,27.6,27.4
	c0.1,62.5,0.1,125.1,0,187.6c-0.1,18.8-8.9,27.1-27.9,27.2c-62.2,0-124.5,0.1-186.7,0c-18.7,0-27.5-8.8-27.6-27.4
	C3.5,439.9,3.5,408.8,3.5,377.7z M221.1,473.7c0-65,0-128.8,0-193c-64.5,0-128.3,0-192.7,0c0,64.5,0,128.6,0,193
	C92.9,473.7,156.8,473.7,221.1,473.7z"/>
<path class="st1" d="M125.1,257.1c30.4,0,60.8,0,91.2,0c19.1,0,27.6,8.3,27.7,27.5c0.1,61.4,0.1,122.7,0,184.1
	c0,18.8-8.4,27.2-27.1,27.2c-61.6,0.1-123.3,0.1-184.9,0c-18.4,0-26.8-8.8-26.8-27.5c0-61.4-0.1-122.7,0-184.1
	c0-18.4,8.7-27.2,27-27.2C63.2,257.1,94.1,257.1,125.1,257.1z M29.1,452C86.2,395,143,338.2,200,281.2c-10.4,0-21.2-0.3-32.1,0.2
	c-2.4,0.1-5.2,2.3-7.1,4.2C118.3,328,75.8,370.5,33.3,413c-1.7,1.8-3.9,4.1-4,6.3C28.9,430.4,29.1,441.5,29.1,452z M48.9,472.3
	c9.2,0,18.9,0.4,28.6-0.2c3.6-0.2,7.9-1.9,10.5-4.4c42.7-42.4,85.2-84.9,127.7-127.5c1.6-1.6,4.1-3.5,4.2-5.3
	c0.4-11.6,0.2-23.1,0.2-33.4C163,358.4,106.1,415.2,48.9,472.3z M220.2,374c-32.8,32.8-65.8,65.9-98.2,98.3c8.6,0,18.9,0.3,29.3-0.2
	c2.8-0.1,6-2,8-4c19.1-18.9,38.1-37.9,57-57c1.7-1.7,3.6-4.2,3.7-6.4C220.4,393.9,220.2,383,220.2,374z M129,281.2
	c-11.1,0-22-0.2-32.9,0.2c-2.2,0.1-4.7,2-6.4,3.7c-18.9,18.7-37.7,37.5-56.5,56.4c-1.7,1.7-3.8,4.1-3.9,6.3
	c-0.4,11.1-0.2,22.2-0.2,33.4C62.7,347.6,95.4,314.8,129,281.2z M219.5,472c0-10.1,0-19.2,0-26.7c-8.8,8.8-18,17.9-26.8,26.7
	C200.7,472,209.8,472,219.5,472z M29.6,308.2c8.9-9,17.9-18,26.5-26.6c-7.9,0-16.9,0-26.5,0C29.6,291.1,29.6,300.1,29.6,308.2z"/>
<path class="st0" d="M3.5,124.7c0-31.1,0-62.2,0-93.4c0-19.3,8.5-28,27.9-28c62.2-0.1,124.5-0.1,186.7,0c19,0,27.6,8.5,27.6,27.4
	c0.1,62.5,0.1,125.1,0,187.6c-0.1,18.8-8.9,27.1-27.9,27.2c-62.2,0.1-124.5,0.1-186.7,0c-18.7,0-27.5-8.8-27.6-27.4
	C3.5,186.9,3.5,155.8,3.5,124.7z M221.1,220.7c0-65,0-128.8,0-193c-64.5,0-128.3,0-192.7,0c0,64.5,0,128.6,0,193
	C92.9,220.7,156.8,220.7,221.1,220.7z"/>
<path class="st2" d="M703.3,232.9c30.7,0,61.3-0.1,92,0c18.5,0.1,27.1,8.6,27.1,27c0.1,61.6,0.1,123.2,0,184.8
	c0,18.1-8.4,26.9-26.3,26.9c-61.9,0.1-123.8,0.1-185.7,0c-18.3,0-26.7-8.3-26.7-26.6c-0.2-61.9-0.2-123.8,0-185.7
	c0-18.1,8.8-26.4,26.8-26.5C641.4,232.8,672.3,232.9,703.3,232.9z M774.6,304.5c0-12.9-10.7-23.7-23.6-23.8
	c-12.9-0.1-23.8,10.5-24.1,23.4c-0.3,13.1,11,24.4,24.1,24.3C763.9,328.3,774.6,317.4,774.6,304.5z M655,280.7
	c-12.9,0.1-23.7,11-23.6,23.8c0,13.1,11.4,24.3,24.5,23.9c13-0.4,23.4-11.3,23.1-24.3C678.7,291.1,667.9,280.5,655,280.7z
	 M679,399.8c-0.2-13-10.8-23.5-23.8-23.5c-13,0.1-23.7,10.7-23.8,23.6c-0.1,13.2,11.2,24.3,24.3,24
	C668.7,423.7,679.1,412.8,679,399.8z M749.8,423.9c12.9,0.6,24-9.6,24.7-22.6c0.8-12.9-9.3-24.1-22.4-24.9
	c-13.3-0.8-24.8,9.6-25.2,22.9C726.5,412.1,737,423.4,749.8,423.9z"/>
<path class="st1" d="M661.3-68.1c30.7,0,61.3-0.1,92,0c18.5,0.1,27.1,8.6,27.1,27c0.1,61.6,0.1,123.2,0,184.8
	c0,18.1-8.4,26.9-26.3,26.9c-61.9,0.1-123.8,0.1-185.7,0c-18.3,0-26.7-8.3-26.7-26.6c-0.2-61.9-0.2-123.8,0-185.7
	c0-18.1,8.8-26.4,26.8-26.5C599.4-68.2,630.3-68.1,661.3-68.1z M732.6,3.5c0-12.9-10.7-23.7-23.6-23.8
	c-12.9-0.1-23.8,10.5-24.1,23.4c-0.3,13.1,11,24.4,24.1,24.3C721.9,27.3,732.6,16.4,732.6,3.5z M613-20.3
	c-12.9,0.1-23.7,11-23.6,23.8c0,13.1,11.4,24.3,24.5,23.9c13-0.4,23.4-11.3,23.1-24.3C636.7-9.9,625.9-20.5,613-20.3z M637,98.8
	c-0.2-13-10.8-23.5-23.8-23.5c-13,0.1-23.7,10.7-23.8,23.6c-0.1,13.2,11.2,24.3,24.3,24C626.7,122.7,637.1,111.8,637,98.8z
	 M707.8,122.9c12.9,0.6,24-9.6,24.7-22.7c0.8-12.9-9.3-24.1-22.4-24.9c-13.3-0.8-24.8,9.6-25.2,22.9
	C684.5,111.1,695,122.4,707.8,122.9z"/>
<path class="st2" d="M374.1,257.1c30.4,0,60.8,0,91.2,0c19.1,0,27.6,8.3,27.7,27.5c0.1,61.4,0.1,122.7,0,184.1
	c0,18.8-8.4,27.2-27.1,27.2c-61.6,0.1-123.3,0.1-184.9,0c-18.4,0-26.8-8.8-26.8-27.5c0-61.4-0.1-122.7,0-184.1
	c0-18.4,8.7-27.2,27-27.2C312.1,257.1,343.1,257.1,374.1,257.1z M278.1,452c57-57,113.8-113.8,170.9-170.8
	c-10.4,0-21.2-0.3-32.1,0.2c-2.4,0.1-5.2,2.3-7.1,4.2C367.3,328,324.8,370.5,282.3,413c-1.7,1.8-3.9,4.1-4,6.3
	C277.9,430.4,278.1,441.5,278.1,452z M297.9,472.3c9.2,0,18.9,0.4,28.6-0.2c3.6-0.2,7.9-1.9,10.5-4.4
	c42.7-42.4,85.2-84.9,127.7-127.5c1.6-1.6,4.1-3.5,4.2-5.3c0.4-11.6,0.2-23.1,0.2-33.4C412,358.4,355.1,415.2,297.9,472.3z
	 M469.2,374c-32.8,32.8-65.8,65.9-98.2,98.3c8.6,0,18.9,0.3,29.3-0.2c2.8-0.1,6-2,8-4c19.1-18.9,38.1-37.9,57-57
	c1.7-1.7,3.6-4.2,3.7-6.4C469.4,393.9,469.2,383,469.2,374z M378,281.2c-11.1,0-22-0.2-32.9,0.2c-2.2,0.1-4.7,2-6.4,3.7
	c-18.9,18.7-37.7,37.5-56.5,56.4c-1.7,1.7-3.8,4.1-3.9,6.3c-0.4,11.1-0.2,22.2-0.2,33.4C311.6,347.6,344.5,314.8,378,281.2z
	 M468.5,472c0-10.1,0-19.2,0-26.7c-8.8,8.8-18,17.9-26.8,26.7C449.7,472,458.8,472,468.5,472z M278.6,308.2c8.9-9,17.9-18,26.5-26.6
	c-7.9,0-16.9,0-26.5,0C278.6,291.1,278.6,300.1,278.6,308.2z"/>
<path class="st0" d="M252.6,377.3c0-31.1,0-62.2,0-93.4c0-19.4,8.5-28,27.9-28.1c62.2-0.1,124.5-0.1,186.7,0
	c19,0,27.6,8.5,27.6,27.4c0.1,62.5,0.1,125.1,0,187.6c0,18.8-8.9,27.1-27.9,27.2c-62.2,0-124.5,0.1-186.7,0
	c-18.7,0-27.5-8.8-27.6-27.4C252.6,439.6,252.6,408.5,252.6,377.3z M470.3,473.3c0-65,0-128.8,0-193c-64.5,0-128.3,0-192.7,0
	c0,64.5,0,128.6,0,193C342,473.3,405.9,473.3,470.3,473.3z"/>
<g class="st3">
	<path class="st4" d="M36,443.2c-2-0.1-3.8-0.8-5.3-2.1c-1-1.4-1.2-2.9-0.8-4.6c1.1-3.1,3.3-4.9,6.7-5.5c1.9-0.4,3.7-1,5.5-1.9
		c2-0.8,4.1-1.6,6.3-2.3c2.2-0.6,4.3-1.3,6.3-2.3c1.8-1.3,3.7-1.7,5.7-1.3c2.3-1.8,5.1-3,8.3-3.6c1.3-2.2,1.6-4.7,0.6-7.3
		c-0.1-4.3,0.1-8.7,0.6-13c0.1-3.9,0.1-7.9-0.2-12c-0.1-4.2-0.3-8.3-0.4-12.4c0-1.4,0.1-2.9,0.4-4.4c-0.1-1.8-0.9-3.1-2.4-4
		c-3.4-1.1-6.9-1.7-10.5-1.7v0.4c-1.2-0.3-2.4-0.4-3.5-0.2c-0.7,0.1-1.2,0.1-1.6-0.2c-1-0.3-1.9-0.4-2.8-0.2c-0.7,0.1-1.3,0.1-2,0
		c-1,0.1-1.8,0.3-2.6,0.4c-1.8,0.3-3.4,0.1-4.9-0.4c-0.5,0.7-1.2,0.9-2,0.6c-1.3-0.3-2.3-1-2.8-2.3c-2-2.5-2.2-5.1-0.4-7.8
		c2-0.8,4.3-1.2,6.7-1c1.3-0.3,2.8-0.6,4.3-0.8c1.9,0.1,3.8,0.1,5.7,0c1.2-0.4,2.4-0.8,3.7-1s2.4-0.1,3.7,0.4c0.9-0.3,1.8-0.3,2.6,0
		c1.1,0.6,2.2,0.6,3.4,0.2c2.8,0.6,4.9-0.4,6.1-2.9c0.4-2.5,0.4-5.2,0-8c0-7.8-0.1-15.7-0.2-23.5c-1.9-6.6-0.5-11.8,4.3-15.5
		c3-0.4,6-0.7,9.1-0.8c3.1-0.6,6.2-0.3,9.1,0.8c2.2,2,2.9,4.3,2.2,7.1c-0.3,3.8-0.4,7.4-0.4,10.9c-0.4,3.6-0.6,7.3-0.6,10.9
		c-0.1,4.1-0.1,8,0.2,12c-0.3,7.7-0.4,15.4-0.4,23.1c0.1,7.8,0.3,15.6,0.4,23.3c-0.1,3.8-0.1,7.4,0.2,10.9c-0.7,3.5-0.3,6.7,1,9.6
		c2,1,4.3,1.5,6.7,1.5c1.1,0.7,2.4,0.9,3.9,0.6c0.9-0.4,2-0.3,3,0.4c2,1.5,2,3.1,0,4.8c-2.3,1.8-4.9,3.1-7.7,3.8
		c-3.1,1.3-6,2.6-8.7,4c-3.1,1.5-6.3,2.2-9.5,2.1c-3.1,0.7-6,1.5-8.7,2.5c-3.1,1.4-6.2,2.5-9.3,3.4c-1.9,0.4-3.7,0.8-5.5,1.3
		c-1.6,0.3-3,0.8-4.3,1.7c-3,0.8-5.3,2.2-6.9,4c-2.2-0.1-4.2,0.3-6.1,1.3c-1.2,0.3-2.4,0.4-3.5,0.4C37.5,442.3,36.7,442.5,36,443.2z
		 M182.4,470.1c-1.8-1.1-3.6-1.3-5.5-0.4c-1.6-0.1-3.2-0.4-4.7-0.8c-2,0-4.1,0.1-6.1,0.2c-3.5-0.4-7-0.7-10.6-0.8
		c-3.5,0.3-6.9,0-10.1-0.8c-2.8-0.6-5.5-1.7-7.9-3.4c-0.5-1-1.3-1.6-2.2-1.9c-1.2-0.3-1.9-1-2-2.3c-0.9-2.5-1.4-5.2-1.2-8.2
		c-0.1-3.8-0.2-7.7-0.2-11.8c0-15.8,0.1-31.5,0.4-47.2c0.3-15.9,0.5-32,0.8-48c-0.3-7.8-0.5-15.7-0.8-23.5c0-8,0-15.9,0-23.9
		c-0.3-2.5-0.2-5,0.2-7.5c1.4-2.8,3.6-4,6.9-3.8c2.8-0.3,5.8-0.4,8.7-0.2c0.7,0.4,1.5,0.8,2.4,1.3c1.6-0.3,3.2-0.1,4.7,0.4
		c2,2.1,2.8,4.6,2.4,7.5c-0.1,3.9-0.2,7.8-0.2,11.8c0,8,0.1,15.9,0.4,23.7c-2.2,7.4-0.5,12.2,5.1,14.5c6.9-1.8,13.7-4,20.5-6.7
		c3.1-1.3,6.2-2.6,9.3-4c1.2-0.8,2.6-1.5,4.3-2.1c1.8,0,3.6,0,5.5,0c1.6-0.1,3.3-0.4,4.9-0.8c1.6,0.3,3.3,0.4,4.9,0.4
		c1.1-0.1,2.2,0.1,3.4,0.6c0.8,1.3,0.9,2.4,0.2,3.4c-2.2,2.1-4.5,3.5-7.1,4.2c-1.4,0.8-2.6,1.6-3.9,2.3c-1.8,0.4-3.4,0.7-5.1,0.8
		c-1.5,0.7-2.9,1.3-4.3,1.7c-1.5,0.4-3,0.8-4.5,1c-3.4,1.4-6.8,2.5-10.1,3.4c-2.8,1-5.6,2-8.3,2.9c-2.2,0.4-4.4,0.8-6.7,1
		c-2.2,0.6-4.1,1.5-5.7,2.7c-1.9,2.1-2.8,4.6-2.6,7.5c-0.5,7.5-0.6,15-0.2,22.4c0,7.8-0.3,15.5-1,23.1c-0.3,7.5-0.5,15.1-0.8,22.6
		c-1.5,7.1-0.5,13.7,3,19.7c4.7,3.9,10.1,5.7,16.2,5.2c2.4,0.4,4.9,0.6,7.5,0.4c1.6-0.3,3,0,4.1,0.8c1.2,0.4,2.4,0.4,3.4-0.2
		c0.7-1.1,0.7-2.3,0.2-3.6c0-1.7,0.2-3.4,0.6-5.2c-0.1-1.7,0-3.4,0.4-5c0.9-2.7,2.9-4,5.9-4c3.6-0.3,7.3-0.6,11-1
		c2.3-0.8,4.3-0.6,6.1,0.8c0.7,1.3,1,2.6,1,4c0,2,0.1,3.9,0.2,5.9c0.4,3.8,0.3,7.5-0.4,11.1c-0.7,3.1-2.2,4.4-4.7,4
		c-0.9,1.1-2.1,1.5-3.4,1.3c-2.7,0.6-5.2,1.4-7.5,2.5C193.6,469.5,188,470.1,182.4,470.1z"/>
</g>
<g class="st3">
	<path class="st4" d="M626.6,104.7c-3-0.3-5.8-1.6-8.2-3.8c-4.5-9.4-6.9-19.5-7.2-30.2s-1.3-21.1-2.9-31v-21c-1-3.4-1.3-7.3-1-11.5
		c1.4-4.6,3.6-9.3,6.5-14.1c7.2-2.9,14.6-4.7,22.3-5.4s14.9-1.2,21.6-1.5l1.2-11.3v-23.8l0.2-1.3H658l-9.6,1c-3-0.3-5.8-1.5-8.2-3.6
		c-2.2-2.9-3.2-6.8-2.9-11.5l2.9-6.2c5.8-3.1,11.9-4.4,18.4-4.1c6.5,0.3,12.4-0.3,17.9-2.1h20.6c8-1.4,16-2.7,24-4.1
		c8-1.4,16.2-2.2,24.7-2.6c4.5-0.3,8.5,0.9,12,3.6c2.7,3.4,3.7,7.5,2.9,12.3l-2.9,6.2c-3,2.6-6.6,3.8-10.8,3.8l-8.2-1.5
		c-4.5,1.7-9.1,2.6-13.9,2.6l0.7-0.8v25.1c-1.3,3.8-1.8,7.1-1.7,10h4.3l9.1-2h26.9c8.3-0.3,16.2,1.5,23.5,5.4v0.3h0.2
		c3,7,4.2,14.4,3.6,22.3c-1.3,15.4-2.9,30.8-4.8,46.4S782,81,778,96.2c-3.4,2.6-7.1,3.7-11.3,3.3c-4.2-2.1-8.8-3.1-13.8-3.1
		s-10,0-15,0c-3.5,1-7.1,1.5-10.8,1.5h-25.9L682,97.5l-19.4,3.1h-21.8C636.5,102.6,631.7,104,626.6,104.7z M760.1,72.7v0.5
		c2.2-12.5,4-24.8,5.3-37.2s2.5-24.1,3.6-35.4l-9.1-0.8h-20.4l-15.1,2.8V2.4l1.7,19.2c3,0.5,6.8,0.6,11.3,0.3
		c4.5-0.3,8.7,0.7,12.7,3.1c2.4,2.9,3.4,6.7,3.1,11.3l-2.9,6.2c-4.2,2.7-8.6,4-13.2,3.8c-4.6-0.2-9.2-0.3-13.7-0.3
		c-5-0.3-9.4-2.2-13.4-5.6l-5.3-7.4c-0.6-5.1-1.1-10.3-1.4-15.4S702.5,7.9,702,4h1c-4.2,1-8.5,1.7-13,2.1c-4.5,0.3-8.5,0.7-12,1
		c-1.1,6.5-3.2,13.3-6.4,20.5c-3.1,7.2-6.5,14.1-10.2,20.8l-2.2,2.3c-3,2.9-6.9,3.9-11.5,3.1l-5.3-3.1c-2.4-2.9-3.4-6.7-3.1-11.3
		l3.1-6.7h1c1.6-3.8,3.5-7.7,5.8-11.9s3.7-7.7,4.3-10.6h0.7c-4.3,0.3-8.6,0.8-12.8,1.3c-4.2,0.5-7.9,1.1-10.9,1.8v0.3l0.5,0.5V37
		c1,6.8,1.7,13.9,2.2,21.1s1.1,13.7,1.9,19.3l2.6-1h23c6.4-1.4,13-2.4,19.9-3.1h23.3l0.5,0.5h21.1l8.2-1.5H755l4.3,0.5L760.1,72.7z
		 M701.7-20.1v-9c1-4.1,1.4-8.4,1.4-12.9c0-4.5,0-8.3,0-11.4h0.2l-3.4,1h-19.2h0.2v0.3l0.5,0.5v28.7l-0.7,5.4h-0.2
		C688.5-17.9,695.5-18.7,701.7-20.1z"/>
</g>
<g class="st3">
	<path class="st4" d="M39,190.2c-2-0.1-3.8-0.8-5.3-2.1c-1-1.4-1.2-2.9-0.8-4.6c1.1-3.1,3.3-4.9,6.7-5.4c1.9-0.4,3.7-1.1,5.5-1.9
		c2-0.8,4.1-1.6,6.3-2.3c2.2-0.6,4.3-1.3,6.3-2.3c1.8-1.3,3.7-1.7,5.7-1.3c2.3-1.8,5.1-3,8.3-3.6c1.3-2.2,1.6-4.7,0.6-7.3
		c-0.1-4.3,0.1-8.7,0.6-13c0.1-3.9,0.1-7.9-0.2-12c-0.1-4.2-0.3-8.3-0.4-12.4c0-1.4,0.1-2.9,0.4-4.4c-0.1-1.8-0.9-3.2-2.4-4
		c-3.4-1.1-6.9-1.7-10.5-1.7v0.4c-1.2-0.3-2.4-0.3-3.5-0.2c-0.7,0.1-1.2,0.1-1.6-0.2c-1-0.3-1.9-0.3-2.8-0.2c-0.7,0.1-1.3,0.1-2,0
		c-1,0.1-1.8,0.3-2.6,0.4c-1.8,0.3-3.4,0.1-4.9-0.4c-0.5,0.7-1.2,0.9-2,0.6c-1.3-0.3-2.3-1.1-2.8-2.3c-2-2.5-2.2-5.1-0.4-7.8
		c2-0.8,4.3-1.2,6.7-1.1c1.3-0.3,2.8-0.6,4.3-0.8c1.9,0.1,3.8,0.1,5.7,0c1.2-0.4,2.4-0.8,3.7-1.1c1.2-0.3,2.4-0.1,3.7,0.4
		c0.9-0.3,1.8-0.3,2.6,0c1.1,0.6,2.2,0.6,3.4,0.2c2.8,0.6,4.9-0.4,6.1-2.9c0.4-2.5,0.4-5.2,0-8c0-7.8-0.1-15.7-0.2-23.5
		C71,59,72.5,53.9,77.2,50.1c3-0.4,6-0.7,9.1-0.8c3.1-0.6,6.2-0.3,9.1,0.8c2.2,2,2.9,4.3,2.2,7.1c-0.3,3.8-0.4,7.4-0.4,10.9
		c-0.4,3.6-0.6,7.3-0.6,10.9c-0.1,4.1-0.1,8,0.2,12c-0.3,7.7-0.4,15.4-0.4,23.1c0.1,7.8,0.3,15.6,0.4,23.3
		c-0.1,3.8-0.1,7.4,0.2,10.9c-0.7,3.5-0.3,6.7,1,9.6c2,1,4.3,1.5,6.7,1.5c1.1,0.7,2.4,0.9,3.9,0.6c0.9-0.4,2-0.3,3,0.4
		c2,1.5,2,3.1,0,4.8c-2.3,1.8-4.9,3.1-7.7,3.8c-3.1,1.3-6,2.6-8.7,4c-3.1,1.5-6.3,2.2-9.5,2.1c-3.1,0.7-6,1.5-8.7,2.5
		c-3.1,1.4-6.2,2.5-9.3,3.4c-1.9,0.4-3.7,0.8-5.5,1.3c-1.6,0.3-3,0.8-4.3,1.7c-3,0.8-5.3,2.2-6.9,4c-2.2-0.1-4.2,0.3-6.1,1.3
		c-1.2,0.3-2.4,0.4-3.5,0.4C40.5,189.3,39.7,189.5,39,190.2z M185.4,217.1c-1.8-1.1-3.6-1.3-5.5-0.4c-1.6-0.1-3.2-0.4-4.7-0.8
		c-2,0-4.1,0.1-6.1,0.2c-3.5-0.4-7-0.7-10.6-0.8c-3.5,0.3-6.9,0-10.1-0.8c-2.8-0.6-5.5-1.7-7.9-3.4c-0.5-1-1.3-1.6-2.2-1.9
		c-1.2-0.3-1.9-1.1-2-2.3c-0.9-2.5-1.4-5.2-1.2-8.2c-0.1-3.8-0.2-7.7-0.2-11.8c0-15.8,0.1-31.5,0.4-47.2c0.3-15.9,0.5-31.9,0.8-48
		c-0.3-7.8-0.5-15.7-0.8-23.5c0-8,0-15.9,0-23.9c-0.3-2.5-0.2-5,0.2-7.5c1.4-2.8,3.6-4,6.9-3.8c2.8-0.3,5.8-0.3,8.7-0.2
		c0.7,0.4,1.5,0.8,2.4,1.3c1.6-0.3,3.2-0.1,4.7,0.4c2,2.1,2.8,4.6,2.4,7.5c-0.1,3.9-0.2,7.8-0.2,11.8c0,8,0.1,15.9,0.4,23.7
		c-2.2,7.4-0.5,12.2,5.1,14.5c6.9-1.8,13.7-4.1,20.5-6.7c3.1-1.3,6.2-2.6,9.3-4c1.2-0.8,2.6-1.5,4.3-2.1c1.8,0,3.6,0,5.5,0
		c1.6-0.1,3.3-0.4,4.9-0.8c1.6,0.3,3.3,0.4,4.9,0.4c1.1-0.1,2.2,0.1,3.4,0.6c0.8,1.3,0.9,2.4,0.2,3.4c-2.2,2.1-4.5,3.5-7.1,4.2
		c-1.4,0.8-2.6,1.6-3.9,2.3c-1.8,0.4-3.4,0.7-5.1,0.8c-1.5,0.7-2.9,1.3-4.3,1.7c-1.5,0.4-3,0.8-4.5,1.1c-3.4,1.4-6.8,2.5-10.1,3.4
		c-2.8,1-5.6,2-8.3,2.9c-2.2,0.4-4.4,0.8-6.7,1.1c-2.2,0.6-4.1,1.5-5.7,2.7c-1.9,2.1-2.8,4.6-2.6,7.6c-0.5,7.6-0.6,15-0.2,22.4
		c0,7.8-0.3,15.5-1,23.1c-0.3,7.6-0.5,15.1-0.8,22.6c-1.5,7.1-0.5,13.7,3,19.7c4.7,3.9,10.1,5.7,16.2,5.2c2.4,0.4,4.9,0.6,7.5,0.4
		c1.6-0.3,3,0,4.1,0.8c1.2,0.4,2.4,0.4,3.4-0.2c0.7-1.1,0.7-2.3,0.2-3.6c0-1.7,0.2-3.4,0.6-5.2c-0.1-1.7,0-3.4,0.4-5
		c0.9-2.7,2.9-4,5.9-4c3.6-0.3,7.3-0.6,11-1.1c2.3-0.8,4.3-0.6,6.1,0.8c0.7,1.3,1,2.6,1,4c0,2,0.1,3.9,0.2,5.9
		c0.4,3.8,0.3,7.5-0.4,11.1c-0.7,3.1-2.2,4.4-4.7,4c-0.9,1.1-2.1,1.5-3.4,1.3c-2.7,0.6-5.2,1.4-7.5,2.5
		C196.6,216.4,191,217.1,185.4,217.1z"/>
</g>
<g>
	<g>
		<defs>
			
				<rect id="SVGID_1_" x="282.2" y="286" transform="matrix(0.4144 -0.9101 0.9101 0.4144 -125.8487 566.0472)" width="189.4" height="189.6"/>
		</defs>
		<clipPath id="SVGID_2_">
			<use xlink:href="#SVGID_1_"  style="overflow:visible;"/>
		</clipPath>
		<g style="clip-path:url(#SVGID_2_);">
			
				<image style="overflow:visible;" width="790" height="789" xlink:href="B01B4A32.png"  transform="matrix(0.2184 9.944498e-02 -9.944498e-02 0.2184 329.8571 255.3598)">
			</image>
		</g>
	</g>
</g>
<text transform="matrix(1 0 0 1 277.5598 183.9635)" class="st5 st6 st7">東</text>
<text transform="matrix(1 0 0 1 25.4401 183.9631)" class="st5 st6 st7">南</text>
<text transform="matrix(1 0 0 1 23.5598 436.9635)" class="st5 st6 st7">東</text>
<path class="st5" d="M416.8,379.8c2-4.4,3.8-8.7,5.7-12.9c1-2.2,1.9-4.4,2.9-6.5c1.2-2.3,3-3.9,5.7-4.2c1.2-0.2,2.3-0.9,3.5-1.1
	c4.9-0.8,7.8,1.6,9.5,5.8c2.9,7.1,5.6,14.2,8.4,21.3c2.7,7,5.5,14,8.2,21c0.9,2.2,2,4.5,2.5,6.8c1.4,6.2-1.9,11.7-8.1,14.1
	c-7.1,2.8-14.2,5.5-21.3,8.2c-7.1,2.7-14.3,5.4-21.5,8c-2.9,1.1-5.8,2.3-8.7,3.2c-5.2,1.6-9.3-1.1-10.5-5.9c-0.4-1.7,0-3.9,0.7-5.6
	c2.6-6.5,5.6-12.8,8.4-19.2c0.2-0.5,0.4-1,0.6-1.7c-2-0.9-4-1.8-6.1-2.7c-5.5-2.4-11.1-4.7-16.4-7.3c-6.7-3.3-9.8-11.3-7.9-17.9
	c1.6-5.5,5.1-9.3,10.4-11.1c2.7-0.9,5.6-1.5,8.4-1.8c3.2-0.3,6.2,1,9.1,2.3c5.2,2.3,10.3,4.6,15.5,6.8
	C416.2,379.6,416.4,379.7,416.8,379.8z"/>
</svg>
