<?xml version="1.0" encoding="utf-8"?>
<!-- Generator: Adobe Illustrator 23.0.0, SVG Export Plug-In . SVG Version: 6.00 Build 0)  -->
<svg version="1.1" id="圖層_1" xmlns="http://www.w3.org/2000/svg" xmlns:xlink="http://www.w3.org/1999/xlink" x="0px" y="0px"
	 viewBox="0 0 225 225" style="enable-background:new 0 0 225 225;" xml:space="preserve">
<style type="text/css">
	
		.st0{opacity:0.3;fill:#333333;stroke:#CCCCCC;stroke-width:10;stroke-linejoin:round;stroke-miterlimit:10;enable-background:new    ;}
	.st1{fill:#333333;stroke:#CCCCCC;stroke-width:10;stroke-linejoin:round;stroke-miterlimit:10;}
	.st2{fill:none;}
	.st3{fill:#333333;}
</style>
<g transform="translate(4.74588,4.74588) scale(0.958,0.958)">
	<g>
		<g>
			<path class="st0" d="M216.6,121.9c0,20.6-16.9,37.5-37.5,37.5c-4.7,0-8.4-0.9-12.2-1.9c-5.6,12.2-16.9,20.6-30.9,20.6
				c-8.4,0-15.9-2.8-21.6-8.4c-7.5,10.3-20.6,17.8-34.7,17.8c-19.7,0-35.6-13.1-40.3-31.9c-17.8-6.6-30-23.4-30-43.1
				c0-26.3,20.6-46.9,46.9-46.9c2.8,0,4.7,0,7.5,0.9c9.4-17.8,27.2-29.1,48.8-29.1c28.1,0,51.6,20.6,55.3,48.8
				c3.8-0.9,6.6-1.9,10.3-1.9C198.8,84.4,216.6,101.3,216.6,121.9z"/>
			<path class="st1" d="M79.7,196.9c-21.6,0-41.3-14.1-48.8-33.8C12.2,153.8,0,134.1,0,112.5c0-30.9,25.3-56.3,56.3-56.3
				c0.9,0,1.9,0,2.8,0c12.2-17.8,31.9-28.1,53.4-28.1c29.1,0,54.4,19.7,62.8,46.9c27.2-1.9,49.7,19.7,49.7,46.9
				c0,26.3-20.6,46.9-46.9,46.9c-1.9,0-4.7,0-6.6-0.9c-7.5,12.2-20.6,19.7-35.6,19.7c-7.5,0-14.1-1.9-20.6-5.6
				C105.9,191.3,92.8,196.9,79.7,196.9z M56.3,75c-20.6,0-37.5,16.9-37.5,37.5c0,15,9.4,29.1,23.4,34.7l4.7,1.9l0.9,4.7
				c3.8,14.1,16.9,24.4,31.9,24.4c10.3,0,20.6-5.6,27.2-14.1l5.6-8.4l7.5,7.5c2.8,2.8,8.4,6.6,15.9,6.6c9.4,0,17.8-5.6,21.6-15
				l2.8-8.4l8.4,2.8c2.8,0.9,5.6,1.9,8.4,1.9c15.9,0,28.1-12.2,28.1-28.1s-12.2-28.1-28.1-28.1c-1.9,0-4.7,0-7.5,0.9l-10.3,2.8
				l-1.9-10.3c-1.9-24.4-21.6-41.3-45-41.3c-16.9,0-32.8,9.4-41.3,24.4l-2.8,5.6l-6.6-0.9C60,75,58.1,75,56.3,75z"/>
		</g>
		<path class="st2" d="M0,226V0h226v226H0z"/>
		<g id="original-icon">
			<path class="st3" d="M79.7,196.9c-21.6,0-41.3-14.1-48.8-33.8C12.2,153.8,0,134.1,0,112.5c0-30.9,25.3-56.3,56.3-56.3
				c0.9,0,1.9,0,2.8,0c12.2-17.8,31.9-28.1,53.4-28.1c29.1,0,54.4,19.7,62.8,46.9c27.2-1.9,49.7,19.7,49.7,46.9
				c0,26.3-20.6,46.9-46.9,46.9c-1.9,0-4.7,0-6.6-0.9c-7.5,12.2-20.6,19.7-35.6,19.7c-7.5,0-14.1-1.9-20.6-5.6
				C105.9,191.3,92.8,196.9,79.7,196.9z M56.3,75c-20.6,0-37.5,16.9-37.5,37.5c0,15,9.4,29.1,23.4,34.7l4.7,1.9l0.9,4.7
				c3.8,14.1,16.9,24.4,31.9,24.4c10.3,0,20.6-5.6,27.2-14.1l5.6-8.4l7.5,7.5c2.8,2.8,8.4,6.6,15.9,6.6c9.4,0,17.8-5.6,21.6-15
				l2.8-8.4l8.4,2.8c2.8,0.9,5.6,1.9,8.4,1.9c15.9,0,28.1-12.2,28.1-28.1s-12.2-28.1-28.1-28.1c-1.9,0-4.7,0-7.5,0.9l-10.3,2.8
				l-1.9-10.3c-1.9-24.4-21.6-41.3-45-41.3c-16.9,0-32.8,9.4-41.3,24.4l-2.8,5.6l-6.6-0.9C60,75,58.1,75,56.3,75z"/>
		</g>
		<path class="st3" d="M0,0"/>
		<path class="st3" d="M0,0"/>
		<path class="st3" d="M0,0"/>
		<path class="st3" d="M0,0"/>
	</g>
</g>
</svg>
