<?xml version="1.0" encoding="utf-8"?>
<!-- Generator: Adobe Illustrator 23.0.0, SVG Export Plug-In . SVG Version: 6.00 Build 0)  -->
<svg version="1.1" id="圖層_1" xmlns="http://www.w3.org/2000/svg" xmlns:xlink="http://www.w3.org/1999/xlink" x="0px" y="0px"
	 viewBox="0 0 500 500" style="enable-background:new 0 0 500 500;" xml:space="preserve">
<style type="text/css">
	.st0{fill:#FFFFFF;}
	.st1{fill:#333333;}
	.st2{fill:#EEEEEE;}
	.st3{fill:#AAAAAA;}
	.st4{font-family:'JasonHandwriting3';}
	.st5{font-size:80px;}
	.st6{letter-spacing:-20;}
</style>
<g>
	<path class="st0" d="M1,494.8C1,338.7,1,182.5,1,26.4c162,0,324,0,486,0c0,156.1,0,312.3,0,468.4C325,494.8,163,494.8,1,494.8z
		 M244.7,144.3c-31.9,0-63.8-0.1-95.6,0c-7,0-14.2,0.2-21.1,1.1c-39.1,4.8-69.5,24.2-90.4,57.3C14.7,239,14.6,295,46.8,332
		c7,8.1,14.9,15.7,23.4,22.2c23.3,18,50.4,24.1,79.5,24c63.8-0.3,127.5-0.1,191.3-0.1c6.7,0,13.5-0.2,20.1-1.1
		c38.5-4.9,69.5-23.6,88.9-56.7c24.8-42.4,23.5-85.5-5.9-126.3c-7.4-10.2-16-19-26.5-26.4c-22.2-15.7-46.7-23-73.6-23.1
		C310.9,144.2,277.8,144.3,244.7,144.3z"/>
	<path class="st1" d="M223.1,173.4c6,0,10.8,0,15.6,0c35,0,69.9-0.2,104.9,0.1c30,0.2,54.6,11.4,74.4,34.9
		c21.2,25.2,25.6,69.8,3.9,100.6c-17.7,25.2-42.8,39.2-73.9,39.7c-40.6,0.7-81.3,0.2-121.9,0.2c-0.6,0-1.3-0.1-2.7-0.2
		c25.9-24,41.1-52.5,41.1-87.6C264.4,226.1,249.3,197.7,223.1,173.4z"/>
	<path class="st2" d="M234.5,261.2c-1.8,24.4-9.9,46.4-28.3,63.1c-31.1,28.3-74.7,31.3-108,13.2c-11-6-19.6-14.2-27.8-23.4
		c-22.2-24.8-25.8-69.4-5-99.6c19.6-28.6,47.6-42.4,82.5-40.8c20,0.9,37.7,7.8,53.6,20.4C214,204,222,216.4,228,230.8
		C232,240.5,234.6,250.5,234.5,261.2z"/>
</g>
<text transform="matrix(1 0 0 1 263.9194 255.672)" class="st3 st4 st5 st6">溫環</text>
<text transform="matrix(1 0 0 1 263.9194 315.672)" class="st3 st4 st5 st6">度境</text>
<path d="M244.4,144.3c33.1,0,66.2,0,99.2,0c26.9,0,51.4,7.4,73.6,23.1c10.4,7.4,19.1,16.2,26.5,26.4c29.3,40.8,30.6,83.9,5.9,126.3
	c-19.4,33.2-50.4,51.8-88.9,56.7c-6.6,0.9-13.4,1.1-20.1,1.1c-63.8,0.1-127.5-0.1-191.3,0.1c-29.1,0.1-56.1-5.9-79.5-24
	c-8.5-6.6-16.4-14.1-23.4-22.2c-32.2-37-32.1-92.9-9.2-129.3c20.9-33.1,51.2-52.5,90.4-57.3c7-0.9,14.1-1,21.1-1.1
	C180.7,144.2,212.5,144.3,244.4,144.3z M222.8,173.4c26.2,24.3,41.3,52.6,41.4,87.6c0.1,35.1-15.2,63.6-41.1,87.6
	c1.4,0.1,2.1,0.2,2.7,0.2c40.7,0,81.3,0.5,121.9-0.2c31.1-0.5,56.1-14.4,73.9-39.7c21.7-30.8,17.3-75.4-3.9-100.6
	c-19.8-23.5-44.3-34.6-74.4-34.9c-35-0.2-69.9-0.1-104.9-0.1C233.7,173.4,228.9,173.4,222.8,173.4z M234.2,261.2
	c0.2-10.8-2.4-20.7-6.5-30.5c-6-14.4-14-26.8-26.5-36.7c-15.9-12.5-33.6-19.5-53.6-20.4c-34.9-1.6-62.9,12.2-82.5,40.8
	c-20.8,30.3-17.2,74.8,5,99.6c8.2,9.2,16.8,17.4,27.8,23.4c33.3,18.1,76.9,15,108-13.2C224.3,307.6,232.3,285.6,234.2,261.2z"/>
</svg>
