<?xml version="1.0" encoding="UTF-8" standalone="no"?>
<svg
   version="1.1"
   viewBox="0 0 171 171"
   id="svg70"
   sodipodi:docname="zvg.svg"
   inkscape:export-filename="C:\Users\K.F\ApkProjects\x\img\tenpt.webp"
   inkscape:export-xdpi="1391"
   inkscape:export-ydpi="1391"
   inkscape:version="1.1.1 (3bf5ae0d25, 2021-09-20)"
   xmlns:inkscape="http://www.inkscape.org/namespaces/inkscape"
   xmlns:sodipodi="http://sodipodi.sourceforge.net/DTD/sodipodi-0.dtd"
   xmlns="http://www.w3.org/2000/svg"
   xmlns:svg="http://www.w3.org/2000/svg">
  <defs
     id="defs74" />
  <sodipodi:namedview
     id="namedview72"
     pagecolor="#ffffff"
     bordercolor="#666666"
     borderopacity="1.0"
     inkscape:pageshadow="2"
     inkscape:pageopacity="0.0"
     inkscape:pagecheckerboard="0"
     showgrid="false"
     inkscape:zoom="1.9228342"
     inkscape:cx="61.88781"
     inkscape:cy="114.67447"
     inkscape:window-width="1366"
     inkscape:window-height="715"
     inkscape:window-x="-8"
     inkscape:window-y="-8"
     inkscape:window-maximized="1"
     inkscape:current-layer="svg70" />
  <g
     fill="none"
     fill-rule="nonzero"
     stroke="none"
     stroke-width="1"
     stroke-linecap="butt"
     stroke-linejoin="miter"
     stroke-miterlimit="10"
     stroke-dasharray=""
     stroke-dashoffset="0"
     font-family="none"
     font-weight="none"
     font-size="none"
     text-anchor="none"
     style="mix-blend-mode: normal"
     id="g68"
     inkscape:export-filename="C:\Users\K.F\ApkProjects\x\img\tenpt.png"
     inkscape:export-xdpi="1391"
     inkscape:export-ydpi="1391">
    <path
       d="M0,171.98863v-171.98863h171.98863v171.98863z"
       fill="none"
       id="path62" />
    <g
       fill="#161616"
       id="g66">
      <path
         d="M49.90283,14.26392c-1.51941,0 -3.04482,0.56777 -4.20264,1.72559l-24.39478,26.31519c-2.679,2.88563 -0.6349,7.57031 3.2981,7.57031h18.14648v35.625c-0.03634,2.56953 1.31367,4.95958 3.53309,6.25495c2.21942,1.29537 4.96439,1.29537 7.18381,0c2.21942,-1.29537 3.56943,-3.68542 3.53309,-6.25495v-35.625h18.18823c3.94013,0 5.98422,-4.68469 3.2981,-7.57031l-24.39478,-26.31519c-1.15781,-1.15781 -2.66931,-1.72559 -4.18872,-1.72559zM121.125,21.375c-3.933,0 -7.125,3.192 -7.125,7.125c0,3.933 3.192,7.125 7.125,7.125c3.933,0 7.125,-3.192 7.125,-7.125c0,-3.933 -3.192,-7.125 -7.125,-7.125zM121.125,49.875c-3.933,0 -7.125,3.192 -7.125,7.125c0,3.933 3.192,7.125 7.125,7.125c3.933,0 7.125,-3.192 7.125,-7.125c0,-3.933 -3.192,-7.125 -7.125,-7.125zM121.01367,78.27759c-3.92955,0.06143 -7.06749,3.29275 -7.01367,7.22241v35.625h-18.14648c-3.933,0 -5.9771,4.68469 -3.2981,7.57031l24.39477,26.31518c2.31562,2.31562 6.07574,2.31562 8.39136,0l24.39477,-26.31518c2.68613,-2.88563 0.64203,-7.57031 -3.2981,-7.57031h-18.18823v-35.625c0.02637,-1.92589 -0.72801,-3.78043 -2.09126,-5.14106c-1.36325,-1.36063 -3.21924,-2.11144 -5.14507,-2.08136zM49.875,106.875c-3.933,0 -7.125,3.192 -7.125,7.125c0,3.933 3.192,7.125 7.125,7.125c3.933,0 7.125,-3.192 7.125,-7.125c0,-3.933 -3.192,-7.125 -7.125,-7.125zM49.875,135.375c-3.933,0 -7.125,3.192 -7.125,7.125c0,3.933 3.192,7.125 7.125,7.125c3.933,0 7.125,-3.192 7.125,-7.125c0,-3.933 -3.192,-7.125 -7.125,-7.125z"
         id="path64" />
    </g>
  </g>
  <text
     xml:space="preserve"
     style="font-style:normal;font-weight:normal;font-size:21.3333px;line-height:125%;font-family:Sans;letter-spacing:0px;word-spacing:0px;fill:#000000;fill-opacity:1;stroke:none;stroke-width:1px;stroke-linecap:butt;stroke-linejoin:miter;stroke-opacity:1"
     x="17.016201"
     y="79.480034"
     id="text4778"
     inkscape:export-filename="C:\Users\K.F\ApkProjects\x\img\tenpt.png"
     inkscape:export-xdpi="1391"
     inkscape:export-ydpi="1391"><tspan
       sodipodi:role="line"
       id="tspan4776"
       x="17.016201"
       y="79.480034"
       style="font-style:normal;font-variant:normal;font-weight:normal;font-stretch:normal;font-size:21.3333px;font-family:'MS PGothic';-inkscape-font-specification:'MS PGothic'">體</tspan><tspan
       sodipodi:role="line"
       x="17.016201"
       y="107.68365"
       id="tspan4780"
       style="font-style:normal;font-variant:normal;font-weight:normal;font-stretch:normal;font-size:21.3333px;font-family:'MS PGothic';-inkscape-font-specification:'MS PGothic'">感</tspan><tspan
       sodipodi:role="line"
       x="17.016201"
       y="135.88728"
       id="tspan4782"
       style="font-style:normal;font-variant:normal;font-weight:normal;font-stretch:normal;font-size:21.3333px;font-family:'MS PGothic';-inkscape-font-specification:'MS PGothic'">溫</tspan></text>
  <text
     xml:space="preserve"
     style="font-style:normal;font-weight:normal;font-size:21.3333px;line-height:125%;font-family:Sans;letter-spacing:0px;word-spacing:0px;fill:#000000;fill-opacity:1;stroke:none;stroke-width:1px;stroke-linecap:butt;stroke-linejoin:miter;stroke-opacity:1"
     x="131.58754"
     y="57.239731"
     id="text4778-6"
     inkscape:export-filename="C:\Users\K.F\ApkProjects\x\img\tenpt.png"
     inkscape:export-xdpi="1391"
     inkscape:export-ydpi="1391"><tspan
       sodipodi:role="line"
       x="131.58754"
       y="57.239731"
       id="tspan4782-9"
       style="font-style:normal;font-variant:normal;font-weight:normal;font-stretch:normal;font-size:21.3333px;font-family:'MS PGothic';-inkscape-font-specification:'MS PGothic'">實</tspan><tspan
       sodipodi:role="line"
       x="131.58754"
       y="85.443352"
       style="font-style:normal;font-variant:normal;font-weight:normal;font-stretch:normal;font-size:21.3333px;font-family:'MS PGothic';-inkscape-font-specification:'MS PGothic'"
       id="tspan22856">際</tspan><tspan
       sodipodi:role="line"
       x="131.58754"
       y="113.64697"
       style="font-style:normal;font-variant:normal;font-weight:normal;font-stretch:normal;font-size:21.3333px;font-family:'MS PGothic';-inkscape-font-specification:'MS PGothic'"
       id="tspan22858">溫</tspan></text>
</svg>
