<?xml version="1.0" encoding="utf-8"?>
<!-- Generator: Adobe Illustrator 23.0.0, SVG Export Plug-In . SVG Version: 6.00 Build 0)  -->
<svg version="1.1" id="圖層_1" xmlns="http://www.w3.org/2000/svg" xmlns:xlink="http://www.w3.org/1999/xlink" x="0px" y="0px"
	 viewBox="0 0 500 500" style="enable-background:new 0 0 500 500;" xml:space="preserve">
<style type="text/css">
	.st0{fill:#FFFFFF;}
	.st1{fill:#333333;}
	.st2{fill:#EEEEEE;}
	.st3{fill:#AAAAAA;}
	.st4{font-family:'JasonHandwriting3';}
	.st5{font-size:80px;}
	.st6{letter-spacing:-20;}
</style>
<g>
	<path class="st0" d="M487,26.4c0,156.1,0,312.3,0,468.4c-162,0-324,0-486,0C1,338.7,1,182.5,1,26.4C163,26.4,325,26.4,487,26.4z
		 M243.4,376.9c31.9,0,63.8,0.1,95.6,0c7,0,14.2-0.2,21.1-1.1c39.1-4.8,69.5-24.2,90.4-57.3c22.9-36.3,23-92.3-9.2-129.3
		c-7-8.1-14.9-15.7-23.4-22.2c-23.3-18-50.4-24.1-79.5-24c-63.8,0.3-127.5,0.1-191.3,0.1c-6.7,0-13.5,0.2-20.1,1.1
		c-38.5,4.9-69.5,23.6-88.9,56.7c-24.8,42.4-23.5,85.5,5.9,126.3c7.4,10.2,16,19,26.5,26.4c22.2,15.7,46.7,23,73.6,23.1
		C177.2,377,210.3,376.9,243.4,376.9z"/>
	<path class="st1" d="M264.9,347.8c-6,0-10.8,0-15.6,0c-35,0-69.9,0.2-104.9-0.1c-30-0.2-54.6-11.4-74.4-34.9
		c-21.2-25.2-25.6-69.8-3.9-100.6c17.7-25.2,42.8-39.2,73.9-39.7c40.6-0.7,81.3-0.2,121.9-0.2c0.6,0,1.3,0.1,2.7,0.2
		c-25.9,24-41.1,52.5-41.1,87.6C223.7,295.2,238.8,323.5,264.9,347.8z"/>
	<path class="st2" d="M253.6,260c1.8-24.4,9.9-46.4,28.3-63.1c31.1-28.3,74.7-31.3,108-13.2c11,6,19.6,14.2,27.8,23.4
		c22.2,24.8,25.8,69.4,5,99.6c-19.6,28.6-47.6,42.4-82.5,40.8c-20-0.9-37.7-7.8-53.6-20.4c-12.5-9.9-20.5-22.3-26.5-36.7
		C256.1,280.7,253.5,270.8,253.6,260z"/>
</g>
<text transform="matrix(1 0 0 1 83.3465 250.0002)"><tspan x="0" y="0" class="st3 st4 st5 st6">溫體</tspan><tspan x="0" y="60" class="st3 st4 st5 st6">度感</tspan></text>
<path d="M243.7,376.9c-33.1,0-66.2,0-99.2,0c-26.9,0-51.4-7.4-73.6-23.1c-10.4-7.4-19.1-16.2-26.5-26.4
	c-29.3-40.8-30.6-83.9-5.9-126.3c19.4-33.2,50.4-51.8,88.9-56.7c6.6-0.9,13.4-1.1,20.1-1.1c63.8-0.1,127.5,0.1,191.3-0.1
	c29.1-0.1,56.1,5.9,79.5,24c8.5,6.6,16.4,14.1,23.4,22.2c32.2,37,32.1,92.9,9.2,129.3c-20.9,33.1-51.2,52.5-90.4,57.3
	c-7,0.9-14.1,1-21.1,1.1C307.4,377,275.5,376.9,243.7,376.9z M265.2,347.8c-26.2-24.3-41.3-52.6-41.4-87.6
	c-0.1-35.1,15.2-63.6,41.1-87.6c-1.4-0.1-2.1-0.2-2.7-0.2c-40.7,0-81.3-0.5-121.9,0.2c-31.1,0.5-56.1,14.4-73.9,39.7
	c-21.7,30.8-17.3,75.4,3.9,100.6c19.8,23.5,44.3,34.6,74.4,34.9c35,0.2,69.9,0.1,104.9,0.1C254.4,347.8,259.2,347.8,265.2,347.8z
	 M253.9,260c-0.2,10.8,2.4,20.7,6.5,30.5c6,14.4,14,26.8,26.5,36.7c15.9,12.5,33.6,19.5,53.6,20.4c34.9,1.6,62.9-12.2,82.5-40.8
	c20.8-30.3,17.2-74.8-5-99.6c-8.2-9.2-16.8-17.4-27.8-23.4c-33.3-18.1-76.9-15-108,13.2C263.8,213.6,255.7,235.6,253.9,260z"/>
</svg>
