<?xml version="1.0" encoding="utf-8"?>
<!-- Generator: Adobe Illustrator 23.0.0, SVG Export Plug-In . SVG Version: 6.00 Build 0)  -->
<svg version="1.1" id="圖層_1" xmlns="http://www.w3.org/2000/svg" xmlns:xlink="http://www.w3.org/1999/xlink" x="0px" y="0px"
	 viewBox="0 0 500 500" style="enable-background:new 0 0 500 500;" xml:space="preserve">
<path d="M0,245.6c6.4-11.2,15.7-15.6,28.7-14.4c11.5,1.1,23.2,0.1,34.8,0.3c11,0.2,17,6.2,17.6,17.1c0.6,11.5-4.8,19.2-16.3,19.9
	c-15.4,0.9-31.1,1.7-46.3-0.4c-6.7-0.9-12.4-9-18.6-13.8C0,251.5,0,248.5,0,245.6z"/>
<path d="M500,254.4c-7,12.4-17.8,16.2-31.5,15.1c-10.6-0.8-21.3,0.1-31.9-0.7c-12.1-0.9-18.4-7.9-17.7-20.2
	c0.7-11.7,7.5-17.2,19-17.2c10.6,0,21.4,0.8,31.9-0.2c13.4-1.3,23.5,2.5,30.2,14.4C500,248.5,500,251.5,500,254.4z"/>
<path d="M251.5,0c14.6,5.2,18.9,16.3,18,30.8c-0.7,11.1,0.2,22.3-0.7,33.4c-0.9,11.3-7.8,17.4-19.4,17c-11.7-0.4-17.7-6.7-17.8-18.3
	c-0.1-11.1,0.8-22.3-0.3-33.4C229.8,14.9,235,5.3,248.5,0C249.5,0,250.5,0,251.5,0z"/>
<path d="M245.6,500c-12-6.7-15.7-16.9-14.4-30.3c1.1-11.1,0.1-22.3,0.5-33.5c0.3-10.2,6.1-16.2,16.2-17.2c10.8-1.1,19.1,4,20,14.5
	c1.4,16.9,1.6,34-0.2,50.8c-0.6,5.7-8.7,10.5-13.4,15.8C251.5,500,248.5,500,245.6,500z"/>
<path d="M134.5,163.4c-26.7-27.1-53-53.7-79.2-80.5c-4-4.1-9.7-8.8-10.1-13.6c-0.6-6.9,0.8-17.3,5.4-20.5C56,45,65.9,46,73.3,47.5
	c4.5,0.9,8.3,6.4,12.1,10.2C204.2,176.5,323.1,295.3,442,414.2c15,15,18.2,28.9,9,37.6c-8.8,8.3-22.1,4.8-36.5-9.7
	c-22.3-22.5-45-44.6-66.7-67.6c-8-8.5-13.5-8.7-23.1-2.4c-80.7,52.5-194.6,5.6-214.8-88.3c-8.6-39.8-3.3-77.4,19.9-111.6
	C131.5,169.4,132.9,166.3,134.5,163.4z"/>
<path d="M386.6,291.6c-59.4-60.1-118.3-119.7-177.1-179.2c52-15.2,99.8-3.9,140.7,33.8C390.2,183.1,404.1,242,386.6,291.6z"/>
<path d="M394.6,124.3c-4.9-3.1-13.1-5.3-14.3-9.5c-2-7.1-2.4-17.7,1.6-22.8c9.7-12.5,22-23.1,34-33.7c8.1-7.1,17.3-6.4,24.6,1.6
	c6.8,7.6,8.7,16.6,1.2,24.8c-10.5,11.4-21.3,22.6-32.5,33.2C405.9,120.9,400.6,121.8,394.6,124.3z"/>
<path d="M71.3,448c-4.8-4-11.8-7.5-14.9-13.1c-2.4-4.5-2.5-13.6,0.6-17.2c11.2-13.3,23.2-26.5,37-36.9c4.8-3.6,18.5-2,23,2.4
	c4.5,4.4,6.2,18.2,2.6,22.9c-10.5,13.8-24.1,25.2-36.8,37.2C80.5,445.4,76.7,445.8,71.3,448z"/>
<g>
</g>
<g>
</g>
<g>
</g>
<g>
</g>
<g>
</g>
<g>
</g>
<g>
</g>
<g>
</g>
<g>
</g>
<g>
</g>
<g>
</g>
</svg>
